<?xml version="1.0" encoding="utf-8" standalone="no"?>
<!DOCTYPE svg PUBLIC "-//W3C//DTD SVG 1.1//EN"
  "http://www.w3.org/Graphics/SVG/1.1/DTD/svg11.dtd">
<svg xmlns:xlink="http://www.w3.org/1999/xlink" width="713.191316pt" height="256.36pt" viewBox="0 0 713.191316 256.36" xmlns="http://www.w3.org/2000/svg" version="1.1">
 <metadata>
  <rdf:RDF xmlns:dc="http://purl.org/dc/elements/1.1/" xmlns:cc="http://creativecommons.org/ns#" xmlns:rdf="http://www.w3.org/1999/02/22-rdf-syntax-ns#">
   <cc:Work>
    <dc:type rdf:resource="http://purl.org/dc/dcmitype/StillImage"/>
    <dc:date>2025-03-23T20:48:34.057330</dc:date>
    <dc:format>image/svg+xml</dc:format>
    <dc:creator>
     <cc:Agent>
      <dc:title>Matplotlib v3.10.0, https://matplotlib.org/</dc:title>
     </cc:Agent>
    </dc:creator>
   </cc:Work>
  </rdf:RDF>
 </metadata>
 <defs>
  <style type="text/css">*{stroke-linejoin: round; stroke-linecap: butt}</style>
 </defs>
 <g id="figure_1">
  <g id="patch_1">
   <path d="M 0 256.36 
L 713.191316 256.36 
L 713.191316 0 
L 0 0 
z
" style="fill: #ffffff"/>
  </g>
  <g id="axes_1">
   <g id="patch_2">
    <path d="M 45.478125 200.56 
L 347.828745 200.56 
L 347.828745 35.28 
L 45.478125 35.28 
z
" style="fill: #ffffff"/>
   </g>
   <g id="matplotlib.axis_1">
    <g id="xtick_1">
     <g id="line2d_1">
      <path d="M 59.221335 200.56 
L 59.221335 35.28 
" clip-path="url(#p0a09223c42)" style="fill: none; stroke-dasharray: 0.8,1.32; stroke-dashoffset: 0; stroke: #b0b0b0; stroke-width: 0.8"/>
     </g>
     <g id="line2d_2">
      <defs>
       <path id="ma7060a031b" d="M 0 0 
L 0 3.5 
" style="stroke: #000000; stroke-width: 0.8"/>
      </defs>
      <g>
       <use xlink:href="#ma7060a031b" x="59.221335" y="200.56" style="stroke: #000000; stroke-width: 0.8"/>
      </g>
     </g>
     <g id="text_1">
      <!-- 0 -->
      <g transform="translate(56.040085 215.158437) scale(0.1 -0.1)">
       <defs>
        <path id="DejaVuSans-30" d="M 2034 4250 
Q 1547 4250 1301 3770 
Q 1056 3291 1056 2328 
Q 1056 1369 1301 889 
Q 1547 409 2034 409 
Q 2525 409 2770 889 
Q 3016 1369 3016 2328 
Q 3016 3291 2770 3770 
Q 2525 4250 2034 4250 
z
M 2034 4750 
Q 2819 4750 3233 4129 
Q 3647 3509 3647 2328 
Q 3647 1150 3233 529 
Q 2819 -91 2034 -91 
Q 1250 -91 836 529 
Q 422 1150 422 2328 
Q 422 3509 836 4129 
Q 1250 4750 2034 4750 
z
" transform="scale(0.015625)"/>
       </defs>
       <use xlink:href="#DejaVuSans-30"/>
      </g>
     </g>
    </g>
    <g id="xtick_2">
     <g id="line2d_3">
      <path d="M 93.57936 200.56 
L 93.57936 35.28 
" clip-path="url(#p0a09223c42)" style="fill: none; stroke-dasharray: 0.8,1.32; stroke-dashoffset: 0; stroke: #b0b0b0; stroke-width: 0.8"/>
     </g>
     <g id="line2d_4">
      <g>
       <use xlink:href="#ma7060a031b" x="93.57936" y="200.56" style="stroke: #000000; stroke-width: 0.8"/>
      </g>
     </g>
     <g id="text_2">
      <!-- 25 -->
      <g transform="translate(87.21686 215.158437) scale(0.1 -0.1)">
       <defs>
        <path id="DejaVuSans-32" d="M 1228 531 
L 3431 531 
L 3431 0 
L 469 0 
L 469 531 
Q 828 903 1448 1529 
Q 2069 2156 2228 2338 
Q 2531 2678 2651 2914 
Q 2772 3150 2772 3378 
Q 2772 3750 2511 3984 
Q 2250 4219 1831 4219 
Q 1534 4219 1204 4116 
Q 875 4013 500 3803 
L 500 4441 
Q 881 4594 1212 4672 
Q 1544 4750 1819 4750 
Q 2544 4750 2975 4387 
Q 3406 4025 3406 3419 
Q 3406 3131 3298 2873 
Q 3191 2616 2906 2266 
Q 2828 2175 2409 1742 
Q 1991 1309 1228 531 
z
" transform="scale(0.015625)"/>
        <path id="DejaVuSans-35" d="M 691 4666 
L 3169 4666 
L 3169 4134 
L 1269 4134 
L 1269 2991 
Q 1406 3038 1543 3061 
Q 1681 3084 1819 3084 
Q 2600 3084 3056 2656 
Q 3513 2228 3513 1497 
Q 3513 744 3044 326 
Q 2575 -91 1722 -91 
Q 1428 -91 1123 -41 
Q 819 9 494 109 
L 494 744 
Q 775 591 1075 516 
Q 1375 441 1709 441 
Q 2250 441 2565 725 
Q 2881 1009 2881 1497 
Q 2881 1984 2565 2268 
Q 2250 2553 1709 2553 
Q 1456 2553 1204 2497 
Q 953 2441 691 2322 
L 691 4666 
z
" transform="scale(0.015625)"/>
       </defs>
       <use xlink:href="#DejaVuSans-32"/>
       <use xlink:href="#DejaVuSans-35" transform="translate(63.623047 0)"/>
      </g>
     </g>
    </g>
    <g id="xtick_3">
     <g id="line2d_5">
      <path d="M 127.937385 200.56 
L 127.937385 35.28 
" clip-path="url(#p0a09223c42)" style="fill: none; stroke-dasharray: 0.8,1.32; stroke-dashoffset: 0; stroke: #b0b0b0; stroke-width: 0.8"/>
     </g>
     <g id="line2d_6">
      <g>
       <use xlink:href="#ma7060a031b" x="127.937385" y="200.56" style="stroke: #000000; stroke-width: 0.8"/>
      </g>
     </g>
     <g id="text_3">
      <!-- 50 -->
      <g transform="translate(121.574885 215.158437) scale(0.1 -0.1)">
       <use xlink:href="#DejaVuSans-35"/>
       <use xlink:href="#DejaVuSans-30" transform="translate(63.623047 0)"/>
      </g>
     </g>
    </g>
    <g id="xtick_4">
     <g id="line2d_7">
      <path d="M 162.29541 200.56 
L 162.29541 35.28 
" clip-path="url(#p0a09223c42)" style="fill: none; stroke-dasharray: 0.8,1.32; stroke-dashoffset: 0; stroke: #b0b0b0; stroke-width: 0.8"/>
     </g>
     <g id="line2d_8">
      <g>
       <use xlink:href="#ma7060a031b" x="162.29541" y="200.56" style="stroke: #000000; stroke-width: 0.8"/>
      </g>
     </g>
     <g id="text_4">
      <!-- 75 -->
      <g transform="translate(155.93291 215.158437) scale(0.1 -0.1)">
       <defs>
        <path id="DejaVuSans-37" d="M 525 4666 
L 3525 4666 
L 3525 4397 
L 1831 0 
L 1172 0 
L 2766 4134 
L 525 4134 
L 525 4666 
z
" transform="scale(0.015625)"/>
       </defs>
       <use xlink:href="#DejaVuSans-37"/>
       <use xlink:href="#DejaVuSans-35" transform="translate(63.623047 0)"/>
      </g>
     </g>
    </g>
    <g id="xtick_5">
     <g id="line2d_9">
      <path d="M 196.653435 200.56 
L 196.653435 35.28 
" clip-path="url(#p0a09223c42)" style="fill: none; stroke-dasharray: 0.8,1.32; stroke-dashoffset: 0; stroke: #b0b0b0; stroke-width: 0.8"/>
     </g>
     <g id="line2d_10">
      <g>
       <use xlink:href="#ma7060a031b" x="196.653435" y="200.56" style="stroke: #000000; stroke-width: 0.8"/>
      </g>
     </g>
     <g id="text_5">
      <!-- 100 -->
      <g transform="translate(187.109685 215.158437) scale(0.1 -0.1)">
       <defs>
        <path id="DejaVuSans-31" d="M 794 531 
L 1825 531 
L 1825 4091 
L 703 3866 
L 703 4441 
L 1819 4666 
L 2450 4666 
L 2450 531 
L 3481 531 
L 3481 0 
L 794 0 
L 794 531 
z
" transform="scale(0.015625)"/>
       </defs>
       <use xlink:href="#DejaVuSans-31"/>
       <use xlink:href="#DejaVuSans-30" transform="translate(63.623047 0)"/>
       <use xlink:href="#DejaVuSans-30" transform="translate(127.246094 0)"/>
      </g>
     </g>
    </g>
    <g id="xtick_6">
     <g id="line2d_11">
      <path d="M 231.01146 200.56 
L 231.01146 35.28 
" clip-path="url(#p0a09223c42)" style="fill: none; stroke-dasharray: 0.8,1.32; stroke-dashoffset: 0; stroke: #b0b0b0; stroke-width: 0.8"/>
     </g>
     <g id="line2d_12">
      <g>
       <use xlink:href="#ma7060a031b" x="231.01146" y="200.56" style="stroke: #000000; stroke-width: 0.8"/>
      </g>
     </g>
     <g id="text_6">
      <!-- 125 -->
      <g transform="translate(221.46771 215.158437) scale(0.1 -0.1)">
       <use xlink:href="#DejaVuSans-31"/>
       <use xlink:href="#DejaVuSans-32" transform="translate(63.623047 0)"/>
       <use xlink:href="#DejaVuSans-35" transform="translate(127.246094 0)"/>
      </g>
     </g>
    </g>
    <g id="xtick_7">
     <g id="line2d_13">
      <path d="M 265.369485 200.56 
L 265.369485 35.28 
" clip-path="url(#p0a09223c42)" style="fill: none; stroke-dasharray: 0.8,1.32; stroke-dashoffset: 0; stroke: #b0b0b0; stroke-width: 0.8"/>
     </g>
     <g id="line2d_14">
      <g>
       <use xlink:href="#ma7060a031b" x="265.369485" y="200.56" style="stroke: #000000; stroke-width: 0.8"/>
      </g>
     </g>
     <g id="text_7">
      <!-- 150 -->
      <g transform="translate(255.825735 215.158437) scale(0.1 -0.1)">
       <use xlink:href="#DejaVuSans-31"/>
       <use xlink:href="#DejaVuSans-35" transform="translate(63.623047 0)"/>
       <use xlink:href="#DejaVuSans-30" transform="translate(127.246094 0)"/>
      </g>
     </g>
    </g>
    <g id="xtick_8">
     <g id="line2d_15">
      <path d="M 299.72751 200.56 
L 299.72751 35.28 
" clip-path="url(#p0a09223c42)" style="fill: none; stroke-dasharray: 0.8,1.32; stroke-dashoffset: 0; stroke: #b0b0b0; stroke-width: 0.8"/>
     </g>
     <g id="line2d_16">
      <g>
       <use xlink:href="#ma7060a031b" x="299.72751" y="200.56" style="stroke: #000000; stroke-width: 0.8"/>
      </g>
     </g>
     <g id="text_8">
      <!-- 175 -->
      <g transform="translate(290.18376 215.158437) scale(0.1 -0.1)">
       <use xlink:href="#DejaVuSans-31"/>
       <use xlink:href="#DejaVuSans-37" transform="translate(63.623047 0)"/>
       <use xlink:href="#DejaVuSans-35" transform="translate(127.246094 0)"/>
      </g>
     </g>
    </g>
    <g id="xtick_9">
     <g id="line2d_17">
      <path d="M 334.085535 200.56 
L 334.085535 35.28 
" clip-path="url(#p0a09223c42)" style="fill: none; stroke-dasharray: 0.8,1.32; stroke-dashoffset: 0; stroke: #b0b0b0; stroke-width: 0.8"/>
     </g>
     <g id="line2d_18">
      <g>
       <use xlink:href="#ma7060a031b" x="334.085535" y="200.56" style="stroke: #000000; stroke-width: 0.8"/>
      </g>
     </g>
     <g id="text_9">
      <!-- 200 -->
      <g transform="translate(324.541785 215.158437) scale(0.1 -0.1)">
       <use xlink:href="#DejaVuSans-32"/>
       <use xlink:href="#DejaVuSans-30" transform="translate(63.623047 0)"/>
       <use xlink:href="#DejaVuSans-30" transform="translate(127.246094 0)"/>
      </g>
     </g>
    </g>
    <g id="text_10">
     <!-- Iteration -->
     <g transform="translate(175.444841 228.836562) scale(0.1 -0.1)">
      <defs>
       <path id="DejaVuSans-49" d="M 628 4666 
L 1259 4666 
L 1259 0 
L 628 0 
L 628 4666 
z
" transform="scale(0.015625)"/>
       <path id="DejaVuSans-74" d="M 1172 4494 
L 1172 3500 
L 2356 3500 
L 2356 3053 
L 1172 3053 
L 1172 1153 
Q 1172 725 1289 603 
Q 1406 481 1766 481 
L 2356 481 
L 2356 0 
L 1766 0 
Q 1100 0 847 248 
Q 594 497 594 1153 
L 594 3053 
L 172 3053 
L 172 3500 
L 594 3500 
L 594 4494 
L 1172 4494 
z
" transform="scale(0.015625)"/>
       <path id="DejaVuSans-65" d="M 3597 1894 
L 3597 1613 
L 953 1613 
Q 991 1019 1311 708 
Q 1631 397 2203 397 
Q 2534 397 2845 478 
Q 3156 559 3463 722 
L 3463 178 
Q 3153 47 2828 -22 
Q 2503 -91 2169 -91 
Q 1331 -91 842 396 
Q 353 884 353 1716 
Q 353 2575 817 3079 
Q 1281 3584 2069 3584 
Q 2775 3584 3186 3129 
Q 3597 2675 3597 1894 
z
M 3022 2063 
Q 3016 2534 2758 2815 
Q 2500 3097 2075 3097 
Q 1594 3097 1305 2825 
Q 1016 2553 972 2059 
L 3022 2063 
z
" transform="scale(0.015625)"/>
       <path id="DejaVuSans-72" d="M 2631 2963 
Q 2534 3019 2420 3045 
Q 2306 3072 2169 3072 
Q 1681 3072 1420 2755 
Q 1159 2438 1159 1844 
L 1159 0 
L 581 0 
L 581 3500 
L 1159 3500 
L 1159 2956 
Q 1341 3275 1631 3429 
Q 1922 3584 2338 3584 
Q 2397 3584 2469 3576 
Q 2541 3569 2628 3553 
L 2631 2963 
z
" transform="scale(0.015625)"/>
       <path id="DejaVuSans-61" d="M 2194 1759 
Q 1497 1759 1228 1600 
Q 959 1441 959 1056 
Q 959 750 1161 570 
Q 1363 391 1709 391 
Q 2188 391 2477 730 
Q 2766 1069 2766 1631 
L 2766 1759 
L 2194 1759 
z
M 3341 1997 
L 3341 0 
L 2766 0 
L 2766 531 
Q 2569 213 2275 61 
Q 1981 -91 1556 -91 
Q 1019 -91 701 211 
Q 384 513 384 1019 
Q 384 1609 779 1909 
Q 1175 2209 1959 2209 
L 2766 2209 
L 2766 2266 
Q 2766 2663 2505 2880 
Q 2244 3097 1772 3097 
Q 1472 3097 1187 3025 
Q 903 2953 641 2809 
L 641 3341 
Q 956 3463 1253 3523 
Q 1550 3584 1831 3584 
Q 2591 3584 2966 3190 
Q 3341 2797 3341 1997 
z
" transform="scale(0.015625)"/>
       <path id="DejaVuSans-69" d="M 603 3500 
L 1178 3500 
L 1178 0 
L 603 0 
L 603 3500 
z
M 603 4863 
L 1178 4863 
L 1178 4134 
L 603 4134 
L 603 4863 
z
" transform="scale(0.015625)"/>
       <path id="DejaVuSans-6f" d="M 1959 3097 
Q 1497 3097 1228 2736 
Q 959 2375 959 1747 
Q 959 1119 1226 758 
Q 1494 397 1959 397 
Q 2419 397 2687 759 
Q 2956 1122 2956 1747 
Q 2956 2369 2687 2733 
Q 2419 3097 1959 3097 
z
M 1959 3584 
Q 2709 3584 3137 3096 
Q 3566 2609 3566 1747 
Q 3566 888 3137 398 
Q 2709 -91 1959 -91 
Q 1206 -91 779 398 
Q 353 888 353 1747 
Q 353 2609 779 3096 
Q 1206 3584 1959 3584 
z
" transform="scale(0.015625)"/>
       <path id="DejaVuSans-6e" d="M 3513 2113 
L 3513 0 
L 2938 0 
L 2938 2094 
Q 2938 2591 2744 2837 
Q 2550 3084 2163 3084 
Q 1697 3084 1428 2787 
Q 1159 2491 1159 1978 
L 1159 0 
L 581 0 
L 581 3500 
L 1159 3500 
L 1159 2956 
Q 1366 3272 1645 3428 
Q 1925 3584 2291 3584 
Q 2894 3584 3203 3211 
Q 3513 2838 3513 2113 
z
" transform="scale(0.015625)"/>
      </defs>
      <use xlink:href="#DejaVuSans-49"/>
      <use xlink:href="#DejaVuSans-74" transform="translate(29.492188 0)"/>
      <use xlink:href="#DejaVuSans-65" transform="translate(68.701172 0)"/>
      <use xlink:href="#DejaVuSans-72" transform="translate(130.224609 0)"/>
      <use xlink:href="#DejaVuSans-61" transform="translate(171.337891 0)"/>
      <use xlink:href="#DejaVuSans-74" transform="translate(232.617188 0)"/>
      <use xlink:href="#DejaVuSans-69" transform="translate(271.826172 0)"/>
      <use xlink:href="#DejaVuSans-6f" transform="translate(299.609375 0)"/>
      <use xlink:href="#DejaVuSans-6e" transform="translate(360.791016 0)"/>
     </g>
    </g>
   </g>
   <g id="matplotlib.axis_2">
    <g id="ytick_1">
     <g id="line2d_19">
      <path d="M 45.478125 183.35776 
L 347.828745 183.35776 
" clip-path="url(#p0a09223c42)" style="fill: none; stroke-dasharray: 0.8,1.32; stroke-dashoffset: 0; stroke: #b0b0b0; stroke-width: 0.8"/>
     </g>
     <g id="line2d_20">
      <defs>
       <path id="m1e24b855d7" d="M 0 0 
L -3.5 0 
" style="stroke: #000000; stroke-width: 0.8"/>
      </defs>
      <g>
       <use xlink:href="#m1e24b855d7" x="45.478125" y="183.35776" style="stroke: #000000; stroke-width: 0.8"/>
      </g>
     </g>
     <g id="text_11">
      <!-- $\mathdefault{10^{0}}$ -->
      <g transform="translate(20.878125 187.156979) scale(0.1 -0.1)">
       <use xlink:href="#DejaVuSans-31" transform="translate(0 0.765625)"/>
       <use xlink:href="#DejaVuSans-30" transform="translate(63.623047 0.765625)"/>
       <use xlink:href="#DejaVuSans-30" transform="translate(128.203125 39.046875) scale(0.7)"/>
      </g>
     </g>
    </g>
    <g id="ytick_2">
     <g id="line2d_21">
      <path d="M 45.478125 139.006594 
L 347.828745 139.006594 
" clip-path="url(#p0a09223c42)" style="fill: none; stroke-dasharray: 0.8,1.32; stroke-dashoffset: 0; stroke: #b0b0b0; stroke-width: 0.8"/>
     </g>
     <g id="line2d_22">
      <g>
       <use xlink:href="#m1e24b855d7" x="45.478125" y="139.006594" style="stroke: #000000; stroke-width: 0.8"/>
      </g>
     </g>
     <g id="text_12">
      <!-- $\mathdefault{10^{1}}$ -->
      <g transform="translate(20.878125 142.805812) scale(0.1 -0.1)">
       <use xlink:href="#DejaVuSans-31" transform="translate(0 0.684375)"/>
       <use xlink:href="#DejaVuSans-30" transform="translate(63.623047 0.684375)"/>
       <use xlink:href="#DejaVuSans-31" transform="translate(128.203125 38.965625) scale(0.7)"/>
      </g>
     </g>
    </g>
    <g id="ytick_3">
     <g id="line2d_23">
      <path d="M 45.478125 94.655427 
L 347.828745 94.655427 
" clip-path="url(#p0a09223c42)" style="fill: none; stroke-dasharray: 0.8,1.32; stroke-dashoffset: 0; stroke: #b0b0b0; stroke-width: 0.8"/>
     </g>
     <g id="line2d_24">
      <g>
       <use xlink:href="#m1e24b855d7" x="45.478125" y="94.655427" style="stroke: #000000; stroke-width: 0.8"/>
      </g>
     </g>
     <g id="text_13">
      <!-- $\mathdefault{10^{2}}$ -->
      <g transform="translate(20.878125 98.454646) scale(0.1 -0.1)">
       <use xlink:href="#DejaVuSans-31" transform="translate(0 0.765625)"/>
       <use xlink:href="#DejaVuSans-30" transform="translate(63.623047 0.765625)"/>
       <use xlink:href="#DejaVuSans-32" transform="translate(128.203125 39.046875) scale(0.7)"/>
      </g>
     </g>
    </g>
    <g id="ytick_4">
     <g id="line2d_25">
      <path d="M 45.478125 50.304261 
L 347.828745 50.304261 
" clip-path="url(#p0a09223c42)" style="fill: none; stroke-dasharray: 0.8,1.32; stroke-dashoffset: 0; stroke: #b0b0b0; stroke-width: 0.8"/>
     </g>
     <g id="line2d_26">
      <g>
       <use xlink:href="#m1e24b855d7" x="45.478125" y="50.304261" style="stroke: #000000; stroke-width: 0.8"/>
      </g>
     </g>
     <g id="text_14">
      <!-- $\mathdefault{10^{3}}$ -->
      <g transform="translate(20.878125 54.103479) scale(0.1 -0.1)">
       <defs>
        <path id="DejaVuSans-33" d="M 2597 2516 
Q 3050 2419 3304 2112 
Q 3559 1806 3559 1356 
Q 3559 666 3084 287 
Q 2609 -91 1734 -91 
Q 1441 -91 1130 -33 
Q 819 25 488 141 
L 488 750 
Q 750 597 1062 519 
Q 1375 441 1716 441 
Q 2309 441 2620 675 
Q 2931 909 2931 1356 
Q 2931 1769 2642 2001 
Q 2353 2234 1838 2234 
L 1294 2234 
L 1294 2753 
L 1863 2753 
Q 2328 2753 2575 2939 
Q 2822 3125 2822 3475 
Q 2822 3834 2567 4026 
Q 2313 4219 1838 4219 
Q 1578 4219 1281 4162 
Q 984 4106 628 3988 
L 628 4550 
Q 988 4650 1302 4700 
Q 1616 4750 1894 4750 
Q 2613 4750 3031 4423 
Q 3450 4097 3450 3541 
Q 3450 3153 3228 2886 
Q 3006 2619 2597 2516 
z
" transform="scale(0.015625)"/>
       </defs>
       <use xlink:href="#DejaVuSans-31" transform="translate(0 0.765625)"/>
       <use xlink:href="#DejaVuSans-30" transform="translate(63.623047 0.765625)"/>
       <use xlink:href="#DejaVuSans-33" transform="translate(128.203125 39.046875) scale(0.7)"/>
      </g>
     </g>
    </g>
    <g id="ytick_5">
     <g id="line2d_27">
      <defs>
       <path id="m33b8938dd2" d="M 0 0 
L -2 0 
" style="stroke: #000000; stroke-width: 0.6"/>
      </defs>
      <g>
       <use xlink:href="#m33b8938dd2" x="45.478125" y="196.708792" style="stroke: #000000; stroke-width: 0.6"/>
      </g>
     </g>
    </g>
    <g id="ytick_6">
     <g id="line2d_28">
      <g>
       <use xlink:href="#m33b8938dd2" x="45.478125" y="193.197011" style="stroke: #000000; stroke-width: 0.6"/>
      </g>
     </g>
    </g>
    <g id="ytick_7">
     <g id="line2d_29">
      <g>
       <use xlink:href="#m33b8938dd2" x="45.478125" y="190.227843" style="stroke: #000000; stroke-width: 0.6"/>
      </g>
     </g>
    </g>
    <g id="ytick_8">
     <g id="line2d_30">
      <g>
       <use xlink:href="#m33b8938dd2" x="45.478125" y="187.655832" style="stroke: #000000; stroke-width: 0.6"/>
      </g>
     </g>
    </g>
    <g id="ytick_9">
     <g id="line2d_31">
      <g>
       <use xlink:href="#m33b8938dd2" x="45.478125" y="185.387158" style="stroke: #000000; stroke-width: 0.6"/>
      </g>
     </g>
    </g>
    <g id="ytick_10">
     <g id="line2d_32">
      <g>
       <use xlink:href="#m33b8938dd2" x="45.478125" y="170.006729" style="stroke: #000000; stroke-width: 0.6"/>
      </g>
     </g>
    </g>
    <g id="ytick_11">
     <g id="line2d_33">
      <g>
       <use xlink:href="#m33b8938dd2" x="45.478125" y="162.196876" style="stroke: #000000; stroke-width: 0.6"/>
      </g>
     </g>
    </g>
    <g id="ytick_12">
     <g id="line2d_34">
      <g>
       <use xlink:href="#m33b8938dd2" x="45.478125" y="156.655697" style="stroke: #000000; stroke-width: 0.6"/>
      </g>
     </g>
    </g>
    <g id="ytick_13">
     <g id="line2d_35">
      <g>
       <use xlink:href="#m33b8938dd2" x="45.478125" y="152.357625" style="stroke: #000000; stroke-width: 0.6"/>
      </g>
     </g>
    </g>
    <g id="ytick_14">
     <g id="line2d_36">
      <g>
       <use xlink:href="#m33b8938dd2" x="45.478125" y="148.845844" style="stroke: #000000; stroke-width: 0.6"/>
      </g>
     </g>
    </g>
    <g id="ytick_15">
     <g id="line2d_37">
      <g>
       <use xlink:href="#m33b8938dd2" x="45.478125" y="145.876676" style="stroke: #000000; stroke-width: 0.6"/>
      </g>
     </g>
    </g>
    <g id="ytick_16">
     <g id="line2d_38">
      <g>
       <use xlink:href="#m33b8938dd2" x="45.478125" y="143.304666" style="stroke: #000000; stroke-width: 0.6"/>
      </g>
     </g>
    </g>
    <g id="ytick_17">
     <g id="line2d_39">
      <g>
       <use xlink:href="#m33b8938dd2" x="45.478125" y="141.035992" style="stroke: #000000; stroke-width: 0.6"/>
      </g>
     </g>
    </g>
    <g id="ytick_18">
     <g id="line2d_40">
      <g>
       <use xlink:href="#m33b8938dd2" x="45.478125" y="125.655562" style="stroke: #000000; stroke-width: 0.6"/>
      </g>
     </g>
    </g>
    <g id="ytick_19">
     <g id="line2d_41">
      <g>
       <use xlink:href="#m33b8938dd2" x="45.478125" y="117.845709" style="stroke: #000000; stroke-width: 0.6"/>
      </g>
     </g>
    </g>
    <g id="ytick_20">
     <g id="line2d_42">
      <g>
       <use xlink:href="#m33b8938dd2" x="45.478125" y="112.304531" style="stroke: #000000; stroke-width: 0.6"/>
      </g>
     </g>
    </g>
    <g id="ytick_21">
     <g id="line2d_43">
      <g>
       <use xlink:href="#m33b8938dd2" x="45.478125" y="108.006459" style="stroke: #000000; stroke-width: 0.6"/>
      </g>
     </g>
    </g>
    <g id="ytick_22">
     <g id="line2d_44">
      <g>
       <use xlink:href="#m33b8938dd2" x="45.478125" y="104.494678" style="stroke: #000000; stroke-width: 0.6"/>
      </g>
     </g>
    </g>
    <g id="ytick_23">
     <g id="line2d_45">
      <g>
       <use xlink:href="#m33b8938dd2" x="45.478125" y="101.52551" style="stroke: #000000; stroke-width: 0.6"/>
      </g>
     </g>
    </g>
    <g id="ytick_24">
     <g id="line2d_46">
      <g>
       <use xlink:href="#m33b8938dd2" x="45.478125" y="98.953499" style="stroke: #000000; stroke-width: 0.6"/>
      </g>
     </g>
    </g>
    <g id="ytick_25">
     <g id="line2d_47">
      <g>
       <use xlink:href="#m33b8938dd2" x="45.478125" y="96.684825" style="stroke: #000000; stroke-width: 0.6"/>
      </g>
     </g>
    </g>
    <g id="ytick_26">
     <g id="line2d_48">
      <g>
       <use xlink:href="#m33b8938dd2" x="45.478125" y="81.304396" style="stroke: #000000; stroke-width: 0.6"/>
      </g>
     </g>
    </g>
    <g id="ytick_27">
     <g id="line2d_49">
      <g>
       <use xlink:href="#m33b8938dd2" x="45.478125" y="73.494543" style="stroke: #000000; stroke-width: 0.6"/>
      </g>
     </g>
    </g>
    <g id="ytick_28">
     <g id="line2d_50">
      <g>
       <use xlink:href="#m33b8938dd2" x="45.478125" y="67.953364" style="stroke: #000000; stroke-width: 0.6"/>
      </g>
     </g>
    </g>
    <g id="ytick_29">
     <g id="line2d_51">
      <g>
       <use xlink:href="#m33b8938dd2" x="45.478125" y="63.655292" style="stroke: #000000; stroke-width: 0.6"/>
      </g>
     </g>
    </g>
    <g id="ytick_30">
     <g id="line2d_52">
      <g>
       <use xlink:href="#m33b8938dd2" x="45.478125" y="60.143511" style="stroke: #000000; stroke-width: 0.6"/>
      </g>
     </g>
    </g>
    <g id="ytick_31">
     <g id="line2d_53">
      <g>
       <use xlink:href="#m33b8938dd2" x="45.478125" y="57.174343" style="stroke: #000000; stroke-width: 0.6"/>
      </g>
     </g>
    </g>
    <g id="ytick_32">
     <g id="line2d_54">
      <g>
       <use xlink:href="#m33b8938dd2" x="45.478125" y="54.602333" style="stroke: #000000; stroke-width: 0.6"/>
      </g>
     </g>
    </g>
    <g id="ytick_33">
     <g id="line2d_55">
      <g>
       <use xlink:href="#m33b8938dd2" x="45.478125" y="52.333659" style="stroke: #000000; stroke-width: 0.6"/>
      </g>
     </g>
    </g>
    <g id="ytick_34">
     <g id="line2d_56">
      <g>
       <use xlink:href="#m33b8938dd2" x="45.478125" y="36.953229" style="stroke: #000000; stroke-width: 0.6"/>
      </g>
     </g>
    </g>
    <g id="text_15">
     <!-- $f(x)$ -->
     <g transform="translate(14.798438 126.57) rotate(-90) scale(0.1 -0.1)">
      <defs>
       <path id="DejaVuSans-Oblique-66" d="M 3059 4863 
L 2969 4384 
L 2419 4384 
Q 2106 4384 1964 4261 
Q 1822 4138 1753 3809 
L 1691 3500 
L 2638 3500 
L 2553 3053 
L 1606 3053 
L 1013 0 
L 434 0 
L 1031 3053 
L 481 3053 
L 563 3500 
L 1113 3500 
L 1159 3744 
Q 1278 4363 1576 4613 
Q 1875 4863 2516 4863 
L 3059 4863 
z
" transform="scale(0.015625)"/>
       <path id="DejaVuSans-28" d="M 1984 4856 
Q 1566 4138 1362 3434 
Q 1159 2731 1159 2009 
Q 1159 1288 1364 580 
Q 1569 -128 1984 -844 
L 1484 -844 
Q 1016 -109 783 600 
Q 550 1309 550 2009 
Q 550 2706 781 3412 
Q 1013 4119 1484 4856 
L 1984 4856 
z
" transform="scale(0.015625)"/>
       <path id="DejaVuSans-Oblique-78" d="M 3841 3500 
L 2234 1784 
L 3219 0 
L 2559 0 
L 1819 1388 
L 531 0 
L -166 0 
L 1556 1844 
L 641 3500 
L 1300 3500 
L 1972 2234 
L 3144 3500 
L 3841 3500 
z
" transform="scale(0.015625)"/>
       <path id="DejaVuSans-29" d="M 513 4856 
L 1013 4856 
Q 1481 4119 1714 3412 
Q 1947 2706 1947 2009 
Q 1947 1309 1714 600 
Q 1481 -109 1013 -844 
L 513 -844 
Q 928 -128 1133 580 
Q 1338 1288 1338 2009 
Q 1338 2731 1133 3434 
Q 928 4138 513 4856 
z
" transform="scale(0.015625)"/>
      </defs>
      <use xlink:href="#DejaVuSans-Oblique-66" transform="translate(0 0.015625)"/>
      <use xlink:href="#DejaVuSans-28" transform="translate(35.205078 0.015625)"/>
      <use xlink:href="#DejaVuSans-Oblique-78" transform="translate(74.21875 0.015625)"/>
      <use xlink:href="#DejaVuSans-29" transform="translate(133.398438 0.015625)"/>
     </g>
    </g>
   </g>
   <g id="line2d_57">
    <path d="M 59.221335 42.792727 
L 81.210471 108.15851 
L 89.456397 132.426081 
L 94.953681 148.05148 
L 99.076644 159.079855 
L 101.825286 165.835285 
L 104.573928 171.907891 
L 107.32257 177.14423 
L 108.696891 179.417247 
L 110.071212 181.453925 
L 111.445533 183.256921 
L 112.819854 184.834441 
L 114.194175 186.199423 
L 115.568496 187.368379 
L 116.942817 188.36013 
L 118.317138 189.19455 
L 121.06578 190.46996 
L 123.814422 191.340056 
L 126.563064 191.923858 
L 129.311706 192.311174 
L 133.434669 192.658659 
L 138.931953 192.882114 
L 148.5522 193.01041 
L 176.03862 193.046756 
L 334.085535 193.047271 
L 334.085535 193.047271 
" clip-path="url(#p0a09223c42)" style="fill: none; stroke: #ff0000; stroke-width: 1.5; stroke-linecap: square"/>
   </g>
   <g id="line2d_58">
    <path d="M 59.221335 42.792727 
L 60.595656 149.49626 
L 61.969977 184.351756 
L 63.344298 189.457175 
L 64.718619 190.654615 
L 66.09294 191.407198 
L 67.467261 191.911756 
L 70.215903 192.475333 
L 72.964545 192.746024 
L 78.461829 192.956446 
L 89.456397 193.037803 
L 160.921089 193.047273 
L 334.085535 193.047271 
L 334.085535 193.047271 
" clip-path="url(#p0a09223c42)" style="fill: none; stroke-dasharray: 9.6,2.4,1.5,2.4; stroke-dashoffset: 0; stroke: #0000ff; stroke-width: 1.5"/>
   </g>
   <g id="line2d_59">
    <path d="M 59.221335 42.792727 
L 60.595656 149.496269 
L 61.969977 184.349903 
L 63.344298 189.451775 
L 64.718619 190.651222 
L 66.09294 191.405059 
L 67.467261 191.910352 
L 70.215903 192.474675 
L 72.964545 192.74571 
L 78.461829 192.956389 
L 89.456397 193.037799 
L 160.921089 193.047269 
L 334.085535 193.047269 
L 334.085535 193.047269 
" clip-path="url(#p0a09223c42)" style="fill: none; stroke-dasharray: 5.55,2.4; stroke-dashoffset: 0; stroke: #00bfbf; stroke-width: 1.5"/>
   </g>
   <g id="line2d_60">
    <path d="M 59.221335 42.792727 
L 60.595656 149.496264 
L 61.969977 185.194691 
L 63.344298 190.446765 
L 64.718619 191.376319 
L 66.09294 192.564701 
L 67.467261 192.90332 
L 70.215903 193.010048 
L 83.959113 193.047261 
L 334.085535 193.04725 
L 334.085535 193.04725 
" clip-path="url(#p0a09223c42)" style="fill: none; stroke-dasharray: 5.55,2.4; stroke-dashoffset: 0; stroke: #008000; stroke-width: 1.5"/>
   </g>
   <g id="line2d_61">
    <path d="M 59.221335 42.792727 
L 60.595656 149.496264 
L 61.969977 185.191418 
L 63.344298 190.024248 
L 64.718619 191.602376 
L 66.09294 192.376739 
L 70.215903 193.018221 
L 79.83615 193.047259 
L 334.085535 193.047271 
L 334.085535 193.047271 
" clip-path="url(#p0a09223c42)" style="fill: none; stroke-dasharray: 5.55,2.4; stroke-dashoffset: 0; stroke: #bf00bf; stroke-width: 1.5"/>
   </g>
   <g id="line2d_62">
    <path d="M 59.221335 42.792727 
L 60.595656 149.496264 
L 61.969977 184.338444 
L 63.344298 188.982522 
L 64.718619 190.371736 
L 66.09294 190.548324 
L 67.467261 191.023877 
L 71.590224 191.443821 
L 72.964545 191.846344 
L 75.713187 192.102081 
L 86.707755 192.59342 
L 93.57936 192.772469 
L 97.702323 192.86133 
L 134.80899 193.045446 
L 334.085535 193.047269 
L 334.085535 193.047269 
" clip-path="url(#p0a09223c42)" style="fill: none; stroke: #000000; stroke-width: 1.5; stroke-linecap: square"/>
   </g>
   <g id="patch_3">
    <path d="M 45.478125 200.56 
L 45.478125 35.28 
" style="fill: none; stroke: #000000; stroke-width: 0.8; stroke-linejoin: miter; stroke-linecap: square"/>
   </g>
   <g id="patch_4">
    <path d="M 347.828745 200.56 
L 347.828745 35.28 
" style="fill: none; stroke: #000000; stroke-width: 0.8; stroke-linejoin: miter; stroke-linecap: square"/>
   </g>
   <g id="patch_5">
    <path d="M 45.478125 200.56 
L 347.828745 200.56 
" style="fill: none; stroke: #000000; stroke-width: 0.8; stroke-linejoin: miter; stroke-linecap: square"/>
   </g>
   <g id="patch_6">
    <path d="M 45.478125 35.28 
L 347.828745 35.28 
" style="fill: none; stroke: #000000; stroke-width: 0.8; stroke-linejoin: miter; stroke-linecap: square"/>
   </g>
  </g>
  <g id="axes_2">
   <g id="patch_7">
    <path d="M 403.640696 200.56 
L 705.991316 200.56 
L 705.991316 35.28 
L 403.640696 35.28 
z
" style="fill: #ffffff"/>
   </g>
   <g id="matplotlib.axis_3">
    <g id="xtick_10">
     <g id="line2d_63">
      <path d="M 417.383906 200.56 
L 417.383906 35.28 
" clip-path="url(#pf5df7f2c88)" style="fill: none; stroke-dasharray: 0.8,1.32; stroke-dashoffset: 0; stroke: #b0b0b0; stroke-width: 0.8"/>
     </g>
     <g id="line2d_64">
      <g>
       <use xlink:href="#ma7060a031b" x="417.383906" y="200.56" style="stroke: #000000; stroke-width: 0.8"/>
      </g>
     </g>
     <g id="text_16">
      <!-- 0 -->
      <g transform="translate(414.202656 215.158437) scale(0.1 -0.1)">
       <use xlink:href="#DejaVuSans-30"/>
      </g>
     </g>
    </g>
    <g id="xtick_11">
     <g id="line2d_65">
      <path d="M 451.741931 200.56 
L 451.741931 35.28 
" clip-path="url(#pf5df7f2c88)" style="fill: none; stroke-dasharray: 0.8,1.32; stroke-dashoffset: 0; stroke: #b0b0b0; stroke-width: 0.8"/>
     </g>
     <g id="line2d_66">
      <g>
       <use xlink:href="#ma7060a031b" x="451.741931" y="200.56" style="stroke: #000000; stroke-width: 0.8"/>
      </g>
     </g>
     <g id="text_17">
      <!-- 25 -->
      <g transform="translate(445.379431 215.158437) scale(0.1 -0.1)">
       <use xlink:href="#DejaVuSans-32"/>
       <use xlink:href="#DejaVuSans-35" transform="translate(63.623047 0)"/>
      </g>
     </g>
    </g>
    <g id="xtick_12">
     <g id="line2d_67">
      <path d="M 486.099956 200.56 
L 486.099956 35.28 
" clip-path="url(#pf5df7f2c88)" style="fill: none; stroke-dasharray: 0.8,1.32; stroke-dashoffset: 0; stroke: #b0b0b0; stroke-width: 0.8"/>
     </g>
     <g id="line2d_68">
      <g>
       <use xlink:href="#ma7060a031b" x="486.099956" y="200.56" style="stroke: #000000; stroke-width: 0.8"/>
      </g>
     </g>
     <g id="text_18">
      <!-- 50 -->
      <g transform="translate(479.737456 215.158437) scale(0.1 -0.1)">
       <use xlink:href="#DejaVuSans-35"/>
       <use xlink:href="#DejaVuSans-30" transform="translate(63.623047 0)"/>
      </g>
     </g>
    </g>
    <g id="xtick_13">
     <g id="line2d_69">
      <path d="M 520.457981 200.56 
L 520.457981 35.28 
" clip-path="url(#pf5df7f2c88)" style="fill: none; stroke-dasharray: 0.8,1.32; stroke-dashoffset: 0; stroke: #b0b0b0; stroke-width: 0.8"/>
     </g>
     <g id="line2d_70">
      <g>
       <use xlink:href="#ma7060a031b" x="520.457981" y="200.56" style="stroke: #000000; stroke-width: 0.8"/>
      </g>
     </g>
     <g id="text_19">
      <!-- 75 -->
      <g transform="translate(514.095481 215.158437) scale(0.1 -0.1)">
       <use xlink:href="#DejaVuSans-37"/>
       <use xlink:href="#DejaVuSans-35" transform="translate(63.623047 0)"/>
      </g>
     </g>
    </g>
    <g id="xtick_14">
     <g id="line2d_71">
      <path d="M 554.816006 200.56 
L 554.816006 35.28 
" clip-path="url(#pf5df7f2c88)" style="fill: none; stroke-dasharray: 0.8,1.32; stroke-dashoffset: 0; stroke: #b0b0b0; stroke-width: 0.8"/>
     </g>
     <g id="line2d_72">
      <g>
       <use xlink:href="#ma7060a031b" x="554.816006" y="200.56" style="stroke: #000000; stroke-width: 0.8"/>
      </g>
     </g>
     <g id="text_20">
      <!-- 100 -->
      <g transform="translate(545.272256 215.158437) scale(0.1 -0.1)">
       <use xlink:href="#DejaVuSans-31"/>
       <use xlink:href="#DejaVuSans-30" transform="translate(63.623047 0)"/>
       <use xlink:href="#DejaVuSans-30" transform="translate(127.246094 0)"/>
      </g>
     </g>
    </g>
    <g id="xtick_15">
     <g id="line2d_73">
      <path d="M 589.174031 200.56 
L 589.174031 35.28 
" clip-path="url(#pf5df7f2c88)" style="fill: none; stroke-dasharray: 0.8,1.32; stroke-dashoffset: 0; stroke: #b0b0b0; stroke-width: 0.8"/>
     </g>
     <g id="line2d_74">
      <g>
       <use xlink:href="#ma7060a031b" x="589.174031" y="200.56" style="stroke: #000000; stroke-width: 0.8"/>
      </g>
     </g>
     <g id="text_21">
      <!-- 125 -->
      <g transform="translate(579.630281 215.158437) scale(0.1 -0.1)">
       <use xlink:href="#DejaVuSans-31"/>
       <use xlink:href="#DejaVuSans-32" transform="translate(63.623047 0)"/>
       <use xlink:href="#DejaVuSans-35" transform="translate(127.246094 0)"/>
      </g>
     </g>
    </g>
    <g id="xtick_16">
     <g id="line2d_75">
      <path d="M 623.532056 200.56 
L 623.532056 35.28 
" clip-path="url(#pf5df7f2c88)" style="fill: none; stroke-dasharray: 0.8,1.32; stroke-dashoffset: 0; stroke: #b0b0b0; stroke-width: 0.8"/>
     </g>
     <g id="line2d_76">
      <g>
       <use xlink:href="#ma7060a031b" x="623.532056" y="200.56" style="stroke: #000000; stroke-width: 0.8"/>
      </g>
     </g>
     <g id="text_22">
      <!-- 150 -->
      <g transform="translate(613.988306 215.158437) scale(0.1 -0.1)">
       <use xlink:href="#DejaVuSans-31"/>
       <use xlink:href="#DejaVuSans-35" transform="translate(63.623047 0)"/>
       <use xlink:href="#DejaVuSans-30" transform="translate(127.246094 0)"/>
      </g>
     </g>
    </g>
    <g id="xtick_17">
     <g id="line2d_77">
      <path d="M 657.890081 200.56 
L 657.890081 35.28 
" clip-path="url(#pf5df7f2c88)" style="fill: none; stroke-dasharray: 0.8,1.32; stroke-dashoffset: 0; stroke: #b0b0b0; stroke-width: 0.8"/>
     </g>
     <g id="line2d_78">
      <g>
       <use xlink:href="#ma7060a031b" x="657.890081" y="200.56" style="stroke: #000000; stroke-width: 0.8"/>
      </g>
     </g>
     <g id="text_23">
      <!-- 175 -->
      <g transform="translate(648.346331 215.158437) scale(0.1 -0.1)">
       <use xlink:href="#DejaVuSans-31"/>
       <use xlink:href="#DejaVuSans-37" transform="translate(63.623047 0)"/>
       <use xlink:href="#DejaVuSans-35" transform="translate(127.246094 0)"/>
      </g>
     </g>
    </g>
    <g id="xtick_18">
     <g id="line2d_79">
      <path d="M 692.248106 200.56 
L 692.248106 35.28 
" clip-path="url(#pf5df7f2c88)" style="fill: none; stroke-dasharray: 0.8,1.32; stroke-dashoffset: 0; stroke: #b0b0b0; stroke-width: 0.8"/>
     </g>
     <g id="line2d_80">
      <g>
       <use xlink:href="#ma7060a031b" x="692.248106" y="200.56" style="stroke: #000000; stroke-width: 0.8"/>
      </g>
     </g>
     <g id="text_24">
      <!-- 200 -->
      <g transform="translate(682.704356 215.158437) scale(0.1 -0.1)">
       <use xlink:href="#DejaVuSans-32"/>
       <use xlink:href="#DejaVuSans-30" transform="translate(63.623047 0)"/>
       <use xlink:href="#DejaVuSans-30" transform="translate(127.246094 0)"/>
      </g>
     </g>
    </g>
    <g id="text_25">
     <!-- Iteration -->
     <g transform="translate(533.607412 228.836562) scale(0.1 -0.1)">
      <use xlink:href="#DejaVuSans-49"/>
      <use xlink:href="#DejaVuSans-74" transform="translate(29.492188 0)"/>
      <use xlink:href="#DejaVuSans-65" transform="translate(68.701172 0)"/>
      <use xlink:href="#DejaVuSans-72" transform="translate(130.224609 0)"/>
      <use xlink:href="#DejaVuSans-61" transform="translate(171.337891 0)"/>
      <use xlink:href="#DejaVuSans-74" transform="translate(232.617188 0)"/>
      <use xlink:href="#DejaVuSans-69" transform="translate(271.826172 0)"/>
      <use xlink:href="#DejaVuSans-6f" transform="translate(299.609375 0)"/>
      <use xlink:href="#DejaVuSans-6e" transform="translate(360.791016 0)"/>
     </g>
    </g>
   </g>
   <g id="matplotlib.axis_4">
    <g id="ytick_35">
     <g id="line2d_81">
      <path d="M 403.640696 182.362925 
L 705.991316 182.362925 
" clip-path="url(#pf5df7f2c88)" style="fill: none; stroke-dasharray: 0.8,1.32; stroke-dashoffset: 0; stroke: #b0b0b0; stroke-width: 0.8"/>
     </g>
     <g id="line2d_82">
      <g>
       <use xlink:href="#m1e24b855d7" x="403.640696" y="182.362925" style="stroke: #000000; stroke-width: 0.8"/>
      </g>
     </g>
     <g id="text_26">
      <!-- $\mathdefault{10^{-6}}$ -->
      <g transform="translate(373.140696 186.162144) scale(0.1 -0.1)">
       <defs>
        <path id="DejaVuSans-2212" d="M 678 2272 
L 4684 2272 
L 4684 1741 
L 678 1741 
L 678 2272 
z
" transform="scale(0.015625)"/>
        <path id="DejaVuSans-36" d="M 2113 2584 
Q 1688 2584 1439 2293 
Q 1191 2003 1191 1497 
Q 1191 994 1439 701 
Q 1688 409 2113 409 
Q 2538 409 2786 701 
Q 3034 994 3034 1497 
Q 3034 2003 2786 2293 
Q 2538 2584 2113 2584 
z
M 3366 4563 
L 3366 3988 
Q 3128 4100 2886 4159 
Q 2644 4219 2406 4219 
Q 1781 4219 1451 3797 
Q 1122 3375 1075 2522 
Q 1259 2794 1537 2939 
Q 1816 3084 2150 3084 
Q 2853 3084 3261 2657 
Q 3669 2231 3669 1497 
Q 3669 778 3244 343 
Q 2819 -91 2113 -91 
Q 1303 -91 875 529 
Q 447 1150 447 2328 
Q 447 3434 972 4092 
Q 1497 4750 2381 4750 
Q 2619 4750 2861 4703 
Q 3103 4656 3366 4563 
z
" transform="scale(0.015625)"/>
       </defs>
       <use xlink:href="#DejaVuSans-31" transform="translate(0 0.765625)"/>
       <use xlink:href="#DejaVuSans-30" transform="translate(63.623047 0.765625)"/>
       <use xlink:href="#DejaVuSans-2212" transform="translate(128.203125 39.046875) scale(0.7)"/>
       <use xlink:href="#DejaVuSans-36" transform="translate(186.855469 39.046875) scale(0.7)"/>
      </g>
     </g>
    </g>
    <g id="ytick_36">
     <g id="line2d_83">
      <path d="M 403.640696 148.468061 
L 705.991316 148.468061 
" clip-path="url(#pf5df7f2c88)" style="fill: none; stroke-dasharray: 0.8,1.32; stroke-dashoffset: 0; stroke: #b0b0b0; stroke-width: 0.8"/>
     </g>
     <g id="line2d_84">
      <g>
       <use xlink:href="#m1e24b855d7" x="403.640696" y="148.468061" style="stroke: #000000; stroke-width: 0.8"/>
      </g>
     </g>
     <g id="text_27">
      <!-- $\mathdefault{10^{-4}}$ -->
      <g transform="translate(373.140696 152.26728) scale(0.1 -0.1)">
       <defs>
        <path id="DejaVuSans-34" d="M 2419 4116 
L 825 1625 
L 2419 1625 
L 2419 4116 
z
M 2253 4666 
L 3047 4666 
L 3047 1625 
L 3713 1625 
L 3713 1100 
L 3047 1100 
L 3047 0 
L 2419 0 
L 2419 1100 
L 313 1100 
L 313 1709 
L 2253 4666 
z
" transform="scale(0.015625)"/>
       </defs>
       <use xlink:href="#DejaVuSans-31" transform="translate(0 0.684375)"/>
       <use xlink:href="#DejaVuSans-30" transform="translate(63.623047 0.684375)"/>
       <use xlink:href="#DejaVuSans-2212" transform="translate(128.203125 38.965625) scale(0.7)"/>
       <use xlink:href="#DejaVuSans-34" transform="translate(186.855469 38.965625) scale(0.7)"/>
      </g>
     </g>
    </g>
    <g id="ytick_37">
     <g id="line2d_85">
      <path d="M 403.640696 114.573197 
L 705.991316 114.573197 
" clip-path="url(#pf5df7f2c88)" style="fill: none; stroke-dasharray: 0.8,1.32; stroke-dashoffset: 0; stroke: #b0b0b0; stroke-width: 0.8"/>
     </g>
     <g id="line2d_86">
      <g>
       <use xlink:href="#m1e24b855d7" x="403.640696" y="114.573197" style="stroke: #000000; stroke-width: 0.8"/>
      </g>
     </g>
     <g id="text_28">
      <!-- $\mathdefault{10^{-2}}$ -->
      <g transform="translate(373.140696 118.372415) scale(0.1 -0.1)">
       <use xlink:href="#DejaVuSans-31" transform="translate(0 0.765625)"/>
       <use xlink:href="#DejaVuSans-30" transform="translate(63.623047 0.765625)"/>
       <use xlink:href="#DejaVuSans-2212" transform="translate(128.203125 39.046875) scale(0.7)"/>
       <use xlink:href="#DejaVuSans-32" transform="translate(186.855469 39.046875) scale(0.7)"/>
      </g>
     </g>
    </g>
    <g id="ytick_38">
     <g id="line2d_87">
      <path d="M 403.640696 80.678332 
L 705.991316 80.678332 
" clip-path="url(#pf5df7f2c88)" style="fill: none; stroke-dasharray: 0.8,1.32; stroke-dashoffset: 0; stroke: #b0b0b0; stroke-width: 0.8"/>
     </g>
     <g id="line2d_88">
      <g>
       <use xlink:href="#m1e24b855d7" x="403.640696" y="80.678332" style="stroke: #000000; stroke-width: 0.8"/>
      </g>
     </g>
     <g id="text_29">
      <!-- $\mathdefault{10^{0}}$ -->
      <g transform="translate(379.040696 84.477551) scale(0.1 -0.1)">
       <use xlink:href="#DejaVuSans-31" transform="translate(0 0.765625)"/>
       <use xlink:href="#DejaVuSans-30" transform="translate(63.623047 0.765625)"/>
       <use xlink:href="#DejaVuSans-30" transform="translate(128.203125 39.046875) scale(0.7)"/>
      </g>
     </g>
    </g>
    <g id="ytick_39">
     <g id="line2d_89">
      <path d="M 403.640696 46.783468 
L 705.991316 46.783468 
" clip-path="url(#pf5df7f2c88)" style="fill: none; stroke-dasharray: 0.8,1.32; stroke-dashoffset: 0; stroke: #b0b0b0; stroke-width: 0.8"/>
     </g>
     <g id="line2d_90">
      <g>
       <use xlink:href="#m1e24b855d7" x="403.640696" y="46.783468" style="stroke: #000000; stroke-width: 0.8"/>
      </g>
     </g>
     <g id="text_30">
      <!-- $\mathdefault{10^{2}}$ -->
      <g transform="translate(379.040696 50.582687) scale(0.1 -0.1)">
       <use xlink:href="#DejaVuSans-31" transform="translate(0 0.765625)"/>
       <use xlink:href="#DejaVuSans-30" transform="translate(63.623047 0.765625)"/>
       <use xlink:href="#DejaVuSans-32" transform="translate(128.203125 39.046875) scale(0.7)"/>
      </g>
     </g>
    </g>
    <g id="text_31">
     <!-- $\|\nabla f(x)\|_2$ -->
     <g transform="translate(366.740696 137.32) rotate(-90) scale(0.1 -0.1)">
      <defs>
       <path id="DejaVuSans-2016" d="M 1344 4891 
L 1344 -1509 
L 813 -1509 
L 813 4891 
L 1344 4891 
z
M 2375 4891 
L 2375 -1509 
L 1844 -1509 
L 1844 4891 
L 2375 4891 
z
" transform="scale(0.015625)"/>
       <path id="DejaVuSans-2207" d="M 2138 659 
L 3444 4047 
L 831 4047 
L 2138 659 
z
M 1791 0 
L -19 4603 
L 4300 4603 
L 2491 0 
L 1791 0 
z
" transform="scale(0.015625)"/>
      </defs>
      <use xlink:href="#DejaVuSans-2016" transform="translate(0 0.578125)"/>
      <use xlink:href="#DejaVuSans-2207" transform="translate(50 0.578125)"/>
      <use xlink:href="#DejaVuSans-Oblique-66" transform="translate(116.894531 0.578125)"/>
      <use xlink:href="#DejaVuSans-28" transform="translate(152.099609 0.578125)"/>
      <use xlink:href="#DejaVuSans-Oblique-78" transform="translate(191.113281 0.578125)"/>
      <use xlink:href="#DejaVuSans-29" transform="translate(250.292969 0.578125)"/>
      <use xlink:href="#DejaVuSans-2016" transform="translate(289.306641 0.578125)"/>
      <use xlink:href="#DejaVuSans-32" transform="translate(340.263672 -15.828125) scale(0.7)"/>
     </g>
    </g>
   </g>
   <g id="line2d_91">
    <path d="M 417.383906 42.792727 
L 444.870326 58.423688 
L 461.362178 67.977851 
L 488.848598 84.157408 
L 517.709339 100.786265 
L 580.928105 136.898489 
L 653.767118 178.281121 
L 659.264402 181.341708 
L 667.510328 185.473443 
L 668.884649 186.049915 
L 670.25897 186.797173 
L 671.633291 187.396243 
L 673.007612 187.718971 
L 675.756254 189.284166 
L 678.504896 189.611653 
L 679.879217 190.328766 
L 681.253538 190.837832 
L 682.627859 191.138496 
L 684.00218 191.254072 
L 685.376501 192.175753 
L 686.750822 191.881566 
L 689.499464 191.903083 
L 692.248106 193.047273 
L 692.248106 193.047273 
" clip-path="url(#pf5df7f2c88)" style="fill: none; stroke: #ff0000; stroke-width: 1.5; stroke-linecap: square"/>
   </g>
   <g id="line2d_92">
    <path d="M 417.383906 42.792727 
L 418.758227 42.792727 
L 420.132548 62.154573 
L 421.506869 69.782229 
L 422.88119 74.422724 
L 424.255511 76.053205 
L 429.752795 81.645291 
L 435.250079 86.480091 
L 446.244647 95.209341 
L 447.618968 95.973416 
L 448.993289 97.247405 
L 450.36761 98.125505 
L 451.741931 99.293015 
L 454.490573 101.19461 
L 455.864894 101.977076 
L 457.239215 103.331471 
L 458.613536 104.372372 
L 459.987857 105.224893 
L 461.362178 106.26443 
L 462.736499 107.720625 
L 464.11082 107.955235 
L 465.485141 109.73319 
L 466.859462 110.246678 
L 468.233783 111.040356 
L 469.608104 113.757308 
L 470.982425 111.737713 
L 472.356746 116.195939 
L 473.731067 114.385286 
L 475.105388 118.990572 
L 476.479709 115.840425 
L 477.85403 122.215102 
L 479.228351 116.122615 
L 480.602672 126.696558 
L 481.976993 126.637915 
L 483.351314 127.060027 
L 484.725635 123.433917 
L 486.099956 125.273995 
L 487.474277 133.198149 
L 488.848598 126.305223 
L 490.222919 132.846371 
L 491.59724 129.631781 
L 492.971561 125.649922 
L 494.345882 147.966942 
L 495.720203 126.230794 
L 497.094524 148.029566 
L 498.468845 125.505909 
L 499.843166 140.877198 
L 501.217487 122.01476 
L 502.591808 129.269881 
L 503.966129 135.854557 
L 505.34045 125.28234 
L 506.714771 121.596401 
L 509.463413 124.212338 
L 510.837734 126.500883 
L 512.212055 133.140009 
L 513.586376 126.472503 
L 514.960697 125.702655 
L 516.335018 141.030712 
L 517.709339 125.931798 
L 519.08366 133.954907 
L 520.457981 126.276533 
L 521.832302 121.608509 
L 523.206623 135.578562 
L 524.580944 125.640534 
L 525.955265 134.383779 
L 527.329586 120.584614 
L 528.703907 134.094762 
L 530.078228 120.375667 
L 531.452549 140.585441 
L 532.82687 125.480321 
L 534.201191 143.48233 
L 535.575512 118.52319 
L 536.949833 133.854253 
L 538.324154 120.135279 
L 539.698475 137.800617 
L 541.072796 130.513269 
L 542.447117 135.289226 
L 543.821438 125.196776 
L 545.195759 128.182468 
L 546.57008 149.708827 
L 547.944401 121.495454 
L 549.318722 132.221242 
L 550.693043 122.786924 
L 552.067364 126.281438 
L 553.441685 125.870136 
L 554.816006 126.236808 
L 556.190327 128.620367 
L 557.564648 141.291643 
L 558.938969 121.841418 
L 560.31329 124.534823 
L 561.687611 122.795918 
L 563.061932 142.082309 
L 564.436253 120.529938 
L 565.810574 122.359785 
L 567.184895 151.642937 
L 568.559216 122.93043 
L 569.933537 134.603333 
L 571.307858 136.374404 
L 572.682179 128.407655 
L 574.0565 127.306733 
L 575.430821 122.95048 
L 576.805142 153.590352 
L 578.179463 120.147079 
L 579.553784 148.39229 
L 580.928105 155.600094 
L 582.302426 126.021987 
L 583.676747 128.015189 
L 585.051068 126.540554 
L 586.425389 127.425871 
L 587.79971 129.664405 
L 589.174031 132.649606 
L 590.548352 120.650161 
L 591.922673 130.106703 
L 593.296994 122.268041 
L 594.671315 132.691016 
L 596.045636 136.175635 
L 597.419957 128.598164 
L 598.794278 125.59204 
L 600.168599 121.081345 
L 601.54292 129.338955 
L 602.917241 132.324713 
L 604.291562 124.202809 
L 607.040204 133.735652 
L 608.414525 120.068919 
L 609.788846 139.493463 
L 611.163167 128.16911 
L 612.537488 126.9754 
L 613.911809 131.67593 
L 615.28613 124.553816 
L 616.660451 136.813924 
L 618.034772 123.169801 
L 619.409093 143.636743 
L 620.783414 124.92948 
L 622.157735 133.912663 
L 623.532056 150.815314 
L 624.906377 121.016098 
L 626.280698 129.989434 
L 627.655019 120.96714 
L 629.02934 131.230728 
L 630.403661 131.441411 
L 631.777982 131.445743 
L 633.152303 125.085916 
L 634.526624 121.516854 
L 635.900945 123.179621 
L 637.275266 136.591974 
L 638.649587 127.670188 
L 640.023908 125.548059 
L 641.398229 127.422753 
L 642.77255 126.017461 
L 644.146871 126.135595 
L 645.521192 129.122052 
L 648.269834 133.424273 
L 649.644155 135.815542 
L 651.018476 130.080868 
L 652.392797 119.594455 
L 653.767118 159.783252 
L 655.141439 125.410306 
L 656.51576 139.53924 
L 657.890081 125.334939 
L 659.264402 132.23048 
L 660.638723 146.455823 
L 662.013044 122.905795 
L 663.387365 129.315529 
L 664.761686 125.373288 
L 666.136007 130.651934 
L 667.510328 130.464468 
L 668.884649 126.270745 
L 670.25897 139.811189 
L 671.633291 124.366553 
L 673.007612 151.097686 
L 674.381933 122.296248 
L 675.756254 138.22715 
L 677.130575 120.543172 
L 678.504896 134.092044 
L 681.253538 136.129708 
L 682.627859 118.675305 
L 684.00218 139.939838 
L 685.376501 128.520272 
L 686.750822 124.902808 
L 688.125143 143.547545 
L 689.499464 122.01348 
L 690.873785 133.774906 
L 692.248106 119.792445 
L 692.248106 119.792445 
" clip-path="url(#pf5df7f2c88)" style="fill: none; stroke-dasharray: 9.6,2.4,1.5,2.4; stroke-dashoffset: 0; stroke: #0000ff; stroke-width: 1.5"/>
   </g>
   <g id="line2d_93">
    <path d="M 417.383906 42.792727 
L 418.758227 62.154572 
L 420.132548 69.777951 
L 421.506869 74.408195 
L 422.88119 76.064859 
L 428.378474 81.656349 
L 436.6244 88.77447 
L 437.998721 89.709245 
L 439.373042 90.967844 
L 440.747363 91.827741 
L 442.121684 93.083378 
L 443.496005 93.933054 
L 444.870326 95.174971 
L 446.244647 96.008425 
L 447.618968 97.20183 
L 448.993289 98.103385 
L 450.36761 99.197975 
L 451.741931 100.096963 
L 453.116252 101.301314 
L 454.490573 102.131456 
L 455.864894 103.368955 
L 457.239215 104.37336 
L 458.613536 105.151038 
L 459.987857 106.723301 
L 461.362178 106.889563 
L 462.736499 108.9962 
L 464.11082 109.094624 
L 465.485141 110.702493 
L 466.859462 111.388903 
L 468.233783 112.319789 
L 469.608104 113.517269 
L 470.982425 115.894831 
L 472.356746 114.743745 
L 473.731067 117.006539 
L 475.105388 117.329075 
L 476.479709 120.300716 
L 477.85403 118.637501 
L 479.228351 119.789041 
L 480.602672 123.637214 
L 481.976993 122.911972 
L 483.351314 124.307404 
L 484.725635 125.365015 
L 486.099956 127.826714 
L 487.474277 126.463739 
L 488.848598 126.463856 
L 490.222919 127.534751 
L 692.248106 127.534751 
L 692.248106 127.534751 
" clip-path="url(#pf5df7f2c88)" style="fill: none; stroke-dasharray: 5.55,2.4; stroke-dashoffset: 0; stroke: #00bfbf; stroke-width: 1.5"/>
   </g>
   <g id="line2d_94">
    <path d="M 417.383906 42.792727 
L 418.758227 42.792727 
L 420.132548 62.154564 
L 421.506869 69.887846 
L 422.88119 74.906355 
L 424.255511 76.174292 
L 425.629832 76.981592 
L 427.004153 83.271597 
L 428.378474 86.209225 
L 429.752795 90.61404 
L 431.127116 89.904275 
L 432.501437 93.248976 
L 433.875758 98.155234 
L 436.6244 105.026344 
L 437.998721 104.177321 
L 439.373042 109.755608 
L 440.747363 113.798707 
L 442.121684 118.449718 
L 443.496005 120.907587 
L 444.870326 118.909683 
L 447.618968 125.537268 
L 448.993289 123.672229 
L 450.36761 123.463767 
L 451.741931 124.42583 
L 453.116252 125.534086 
L 454.490573 124.88932 
L 455.864894 121.208781 
L 457.239215 118.702468 
L 458.613536 120.837694 
L 459.987857 121.111206 
L 461.362178 122.17131 
L 462.736499 119.176908 
L 464.11082 118.133155 
L 465.485141 121.174003 
L 466.859462 122.492998 
L 468.233783 125.754747 
L 469.608104 120.693687 
L 470.982425 117.168452 
L 472.356746 117.076716 
L 473.731067 118.998742 
L 475.105388 120.337963 
L 476.479709 121.931922 
L 477.85403 123.354161 
L 479.228351 124.366588 
L 480.602672 119.758009 
L 481.976993 117.295885 
L 483.351314 117.19246 
L 484.725635 119.085134 
L 486.099956 123.426863 
L 487.474277 123.693597 
L 488.848598 122.231871 
L 490.222919 117.96759 
L 491.59724 117.595473 
L 492.971561 118.416319 
L 494.345882 120.617867 
L 495.720203 121.521756 
L 497.094524 122.902274 
L 498.468845 123.784239 
L 499.843166 120.997188 
L 501.217487 119.834225 
L 502.591808 119.539978 
L 503.966129 121.708282 
L 505.34045 126.582087 
L 506.714771 128.996598 
L 508.089092 122.648354 
L 509.463413 121.018316 
L 510.837734 120.255072 
L 512.212055 122.7585 
L 513.586376 124.360332 
L 514.960697 124.377056 
L 516.335018 122.665101 
L 517.709339 121.510611 
L 519.08366 123.979608 
L 520.457981 124.898993 
L 521.832302 123.336821 
L 523.206623 124.817309 
L 524.580944 122.535597 
L 525.955265 121.37948 
L 527.329586 124.607342 
L 528.703907 125.28325 
L 531.452549 118.401275 
L 532.82687 116.796852 
L 534.201191 115.916618 
L 535.575512 115.717957 
L 536.949833 116.141162 
L 538.324154 117.330956 
L 539.698475 117.901416 
L 541.072796 118.242359 
L 542.447117 119.207748 
L 543.821438 118.251129 
L 545.195759 117.531851 
L 546.57008 115.964803 
L 547.944401 114.591998 
L 549.318722 114.281353 
L 550.693043 116.047707 
L 553.441685 122.095773 
L 554.816006 118.123197 
L 556.190327 116.322815 
L 557.564648 116.424043 
L 558.938969 118.870019 
L 560.31329 119.146529 
L 561.687611 119.636699 
L 563.061932 121.270272 
L 564.436253 121.442409 
L 565.810574 120.327084 
L 567.184895 116.594596 
L 568.559216 115.68106 
L 569.933537 115.853974 
L 571.307858 117.282699 
L 572.682179 118.462759 
L 574.0565 119.438875 
L 576.805142 120.550605 
L 578.179463 120.718954 
L 579.553784 120.721977 
L 580.928105 119.476724 
L 582.302426 116.798421 
L 585.051068 115.631742 
L 586.425389 114.832383 
L 587.79971 114.707065 
L 589.174031 115.440693 
L 590.548352 116.312775 
L 591.922673 119.365031 
L 593.296994 121.792428 
L 594.671315 120.198132 
L 596.045636 119.735504 
L 597.419957 117.28424 
L 598.794278 116.438108 
L 600.168599 115.972434 
L 601.54292 117.024772 
L 602.917241 117.574015 
L 604.291562 120.373113 
L 605.665883 121.238665 
L 607.040204 120.822218 
L 608.414525 117.587496 
L 609.788846 116.820002 
L 611.163167 116.843507 
L 612.537488 119.936983 
L 615.28613 124.292004 
L 618.034772 121.071399 
L 619.409093 122.946723 
L 620.783414 121.660447 
L 622.157735 121.265204 
L 623.532056 121.346527 
L 624.906377 120.475319 
L 626.280698 120.306471 
L 627.655019 121.813296 
L 629.02934 122.846807 
L 630.403661 120.086804 
L 631.777982 120.218794 
L 633.152303 123.956877 
L 634.526624 124.7858 
L 635.900945 119.675453 
L 637.275266 119.191515 
L 638.649587 120.97905 
L 640.023908 123.990324 
L 641.398229 120.980777 
L 642.77255 119.925411 
L 644.146871 121.149255 
L 645.521192 122.812072 
L 646.895513 122.876997 
L 648.269834 124.11489 
L 649.644155 122.044504 
L 651.018476 119.062942 
L 652.392797 119.187478 
L 653.767118 121.072237 
L 655.141439 124.130455 
L 656.51576 124.416687 
L 657.890081 117.053854 
L 659.264402 114.344763 
L 660.638723 113.302422 
L 663.387365 112.006573 
L 664.761686 111.787807 
L 666.136007 111.727192 
L 667.510328 112.146785 
L 668.884649 112.818207 
L 670.25897 113.752321 
L 671.633291 115.550691 
L 673.007612 117.596195 
L 674.381933 117.75291 
L 677.130575 116.161384 
L 678.504896 115.735025 
L 679.879217 114.558948 
L 682.627859 114.21874 
L 684.00218 114.423955 
L 685.376501 114.065395 
L 688.125143 113.618551 
L 689.499464 113.71043 
L 690.873785 114.356769 
L 692.248106 115.831159 
L 692.248106 115.831159 
" clip-path="url(#pf5df7f2c88)" style="fill: none; stroke-dasharray: 5.55,2.4; stroke-dashoffset: 0; stroke: #008000; stroke-width: 1.5"/>
   </g>
   <g id="line2d_95">
    <path d="M 417.383906 42.792727 
L 418.758227 62.154564 
L 420.132548 69.887339 
L 421.506869 74.100561 
L 422.88119 74.270136 
L 424.255511 81.3387 
L 425.629832 81.23115 
L 427.004153 84.97698 
L 428.378474 91.217745 
L 429.752795 92.460414 
L 431.127116 94.022233 
L 432.501437 101.381884 
L 433.875758 112.091162 
L 435.250079 115.316061 
L 436.6244 116.312458 
L 437.998721 121.792992 
L 439.373042 132.777636 
L 440.747363 130.609195 
L 442.121684 132.827817 
L 443.496005 133.917425 
L 444.870326 128.381966 
L 446.244647 147.678776 
L 447.618968 134.610771 
L 448.993289 131.488829 
L 450.36761 136.85774 
L 451.741931 134.838682 
L 453.116252 140.117778 
L 454.490573 130.793338 
L 455.864894 137.362831 
L 457.239215 141.557192 
L 458.613536 133.953683 
L 459.987857 135.001793 
L 461.362178 136.791788 
L 462.736499 131.996391 
L 464.11082 130.570648 
L 465.485141 136.202503 
L 466.859462 134.723994 
L 468.233783 142.327828 
L 469.608104 136.836014 
L 470.982425 136.615104 
L 472.356746 134.812068 
L 473.731067 145.223579 
L 475.105388 142.426653 
L 476.479709 129.589771 
L 477.85403 139.342588 
L 479.228351 136.443097 
L 480.602672 137.479676 
L 481.976993 152.686359 
L 483.351314 146.219165 
L 484.725635 132.939995 
L 486.099956 141.466392 
L 487.474277 132.148199 
L 488.848598 137.338418 
L 490.222919 162.144946 
L 491.59724 146.216096 
L 492.971561 138.803758 
L 494.345882 141.03593 
L 495.720203 138.050686 
L 497.094524 134.420592 
L 498.468845 154.824712 
L 499.843166 142.517334 
L 501.217487 134.930585 
L 502.591808 137.180584 
L 503.966129 134.026369 
L 505.34045 131.763811 
L 506.714771 149.180981 
L 508.089092 134.301817 
L 509.463413 133.466626 
L 510.837734 136.872067 
L 513.586376 148.4885 
L 514.960697 137.433747 
L 516.335018 138.042306 
L 517.709339 138.789993 
L 519.08366 129.451988 
L 520.457981 154.749442 
L 521.832302 142.644559 
L 523.206623 137.226359 
L 524.580944 142.041296 
L 525.955265 138.413122 
L 527.329586 133.610368 
L 528.703907 136.131988 
L 530.078228 137.879694 
L 531.452549 138.662452 
L 532.82687 140.858432 
L 534.201191 146.665883 
L 535.575512 143.514638 
L 536.949833 139.757007 
L 538.324154 135.331234 
L 539.698475 133.046134 
L 541.072796 136.94317 
L 542.447117 136.60911 
L 543.821438 139.299484 
L 545.195759 139.21673 
L 546.57008 137.638721 
L 547.944401 131.633247 
L 549.318722 133.397982 
L 550.693043 129.618358 
L 552.067364 146.76173 
L 553.441685 134.421537 
L 554.816006 137.97062 
L 556.190327 133.58458 
L 557.564648 130.417929 
L 558.938969 139.127116 
L 560.31329 144.841334 
L 561.687611 136.445103 
L 563.061932 138.890658 
L 564.436253 129.56617 
L 565.810574 138.760102 
L 567.184895 140.622803 
L 568.559216 131.902567 
L 569.933537 130.811833 
L 571.307858 138.500899 
L 572.682179 138.633843 
L 574.0565 136.368029 
L 575.430821 141.891467 
L 576.805142 139.911368 
L 578.179463 140.948694 
L 579.553784 132.809912 
L 580.928105 146.798435 
L 582.302426 131.892373 
L 583.676747 132.148179 
L 585.051068 136.852872 
L 586.425389 138.634342 
L 587.79971 172.225095 
L 589.174031 158.073038 
L 590.548352 145.767511 
L 591.922673 131.808129 
L 593.296994 157.624998 
L 594.671315 141.349125 
L 596.045636 135.209411 
L 597.419957 132.900478 
L 598.794278 138.887777 
L 600.168599 140.755066 
L 601.54292 154.839775 
L 602.917241 153.025039 
L 604.291562 135.500573 
L 605.665883 149.61307 
L 607.040204 137.503278 
L 608.414525 128.835254 
L 609.788846 150.426228 
L 611.163167 148.008862 
L 612.537488 142.127855 
L 613.911809 139.509918 
L 615.28613 130.276669 
L 616.660451 143.755647 
L 618.034772 132.27488 
L 619.409093 129.503289 
L 620.783414 140.984575 
L 622.157735 130.369999 
L 623.532056 153.378037 
L 624.906377 140.558458 
L 626.280698 129.17189 
L 627.655019 140.108943 
L 629.02934 133.002354 
L 631.777982 150.904301 
L 633.152303 145.013804 
L 634.526624 135.339847 
L 635.900945 136.588277 
L 637.275266 131.526398 
L 638.649587 143.894943 
L 640.023908 134.604481 
L 641.398229 159.880262 
L 642.77255 161.29968 
L 644.146871 155.142206 
L 645.521192 140.874693 
L 646.895513 127.884056 
L 648.269834 146.833802 
L 649.644155 139.983451 
L 651.018476 137.274862 
L 652.392797 135.138443 
L 653.767118 137.962441 
L 655.141439 139.553531 
L 656.51576 136.571515 
L 657.890081 134.061901 
L 659.264402 136.931103 
L 660.638723 136.80325 
L 662.013044 128.931476 
L 663.387365 138.068777 
L 664.761686 133.20793 
L 666.136007 138.384547 
L 667.510328 135.688431 
L 668.884649 137.928729 
L 670.25897 130.535346 
L 671.633291 149.728339 
L 673.007612 138.110159 
L 674.381933 134.183655 
L 675.756254 147.324522 
L 677.130575 139.081865 
L 678.504896 132.692111 
L 679.879217 130.634672 
L 681.253538 135.734531 
L 682.627859 133.705529 
L 684.00218 131.323566 
L 685.376501 148.094432 
L 686.750822 142.422591 
L 688.125143 133.109627 
L 689.499464 133.727449 
L 690.873785 156.0254 
L 692.248106 149.925645 
L 692.248106 149.925645 
" clip-path="url(#pf5df7f2c88)" style="fill: none; stroke-dasharray: 5.55,2.4; stroke-dashoffset: 0; stroke: #bf00bf; stroke-width: 1.5"/>
   </g>
   <g id="line2d_96">
    <path d="M 417.383906 42.792727 
L 418.758227 62.154564 
L 420.132548 69.779829 
L 421.506869 74.979506 
L 422.88119 76.336659 
L 424.255511 77.305532 
L 425.629832 77.314386 
L 427.004153 79.342073 
L 428.378474 77.913025 
L 429.752795 79.880751 
L 431.127116 77.09524 
L 432.501437 81.22104 
L 433.875758 80.344395 
L 435.250079 81.872207 
L 436.6244 80.306721 
L 437.998721 82.980895 
L 439.373042 82.178283 
L 440.747363 83.28782 
L 442.121684 81.470391 
L 443.496005 84.313874 
L 444.870326 83.533752 
L 446.244647 84.579921 
L 447.618968 82.397037 
L 448.993289 86.024523 
L 450.36761 85.398248 
L 451.741931 86.47766 
L 453.116252 84.466937 
L 454.490573 87.68964 
L 455.864894 86.745887 
L 457.239215 88.394371 
L 458.613536 85.951518 
L 459.987857 89.572164 
L 461.362178 88.516632 
L 462.736499 90.134338 
L 464.11082 90.307094 
L 466.859462 93.221734 
L 468.233783 92.300697 
L 469.608104 94.535791 
L 470.982425 94.777687 
L 472.356746 96.033297 
L 473.731067 96.418333 
L 475.105388 95.593519 
L 476.479709 97.560394 
L 477.85403 96.632136 
L 479.228351 98.129737 
L 480.602672 96.19344 
L 481.976993 99.749297 
L 483.351314 97.41075 
L 484.725635 101.190344 
L 486.099956 100.829648 
L 487.474277 102.391844 
L 488.848598 101.330859 
L 490.222919 102.913713 
L 491.59724 104.138176 
L 492.971561 103.279968 
L 494.345882 104.546305 
L 495.720203 103.483558 
L 497.094524 105.627272 
L 498.468845 104.602769 
L 499.843166 106.160661 
L 501.217487 106.198769 
L 502.591808 107.667442 
L 503.966129 105.754239 
L 505.34045 108.497514 
L 506.714771 107.166287 
L 508.089092 108.860642 
L 509.463413 108.368175 
L 510.837734 109.617944 
L 512.212055 107.670833 
L 513.586376 110.599215 
L 514.960697 108.821425 
L 516.335018 111.251718 
L 517.709339 109.424151 
L 519.08366 111.699488 
L 520.457981 109.373847 
L 521.832302 112.637066 
L 523.206623 111.145697 
L 524.580944 113.429846 
L 525.955265 110.255987 
L 527.329586 116.314801 
L 528.703907 115.31623 
L 530.078228 116.878338 
L 531.452549 116.973629 
L 532.82687 119.275268 
L 534.201191 119.153814 
L 535.575512 120.160307 
L 536.949833 119.403377 
L 538.324154 121.755951 
L 539.698475 121.201737 
L 541.072796 122.665794 
L 542.447117 121.648904 
L 543.821438 123.210099 
L 545.195759 124.369929 
L 546.57008 121.043966 
L 547.944401 122.6555 
L 549.318722 125.162526 
L 550.693043 123.041191 
L 552.067364 126.228997 
L 553.441685 121.864136 
L 554.816006 124.274081 
L 556.190327 125.618101 
L 557.564648 123.636219 
L 558.938969 126.5398 
L 560.31329 122.898707 
L 561.687611 126.762636 
L 563.061932 123.404666 
L 564.436253 126.850904 
L 565.810574 128.313243 
L 567.184895 119.895246 
L 568.559216 124.298807 
L 569.933537 122.079134 
L 571.307858 126.025892 
L 572.682179 126.684956 
L 574.0565 126.757649 
L 575.430821 124.170639 
L 576.805142 128.296173 
L 579.553784 129.029072 
L 580.928105 126.432462 
L 582.302426 130.203311 
L 583.676747 123.19801 
L 585.051068 128.882421 
L 586.425389 129.305176 
L 587.79971 125.614182 
L 589.174031 126.754445 
L 590.548352 127.363391 
L 591.922673 131.094463 
L 593.296994 125.815192 
L 594.671315 126.676719 
L 596.045636 129.312186 
L 597.419957 126.224544 
L 598.794278 132.646385 
L 600.168599 121.929237 
L 601.54292 132.998865 
L 602.917241 124.201343 
L 604.291562 123.206045 
L 605.665883 126.472035 
L 607.040204 128.971732 
L 608.414525 122.429266 
L 609.788846 131.513773 
L 611.163167 132.149384 
L 612.537488 119.022741 
L 613.911809 122.841979 
L 615.28613 133.873449 
L 616.660451 129.178112 
L 618.034772 125.489456 
L 619.409093 125.264079 
L 620.783414 123.901232 
L 622.157735 130.363989 
L 623.532056 125.453198 
L 624.906377 126.339333 
L 626.280698 136.285393 
L 627.655019 131.442459 
L 629.02934 121.526313 
L 630.403661 122.624302 
L 631.777982 127.527217 
L 633.152303 137.019322 
L 634.526624 137.353783 
L 635.900945 122.331204 
L 637.275266 129.833702 
L 638.649587 132.28954 
L 640.023908 131.557274 
L 641.398229 131.308031 
L 642.77255 121.476135 
L 644.146871 126.795974 
L 645.521192 120.743093 
L 646.895513 128.494247 
L 648.269834 128.066714 
L 649.644155 129.742709 
L 651.018476 130.3691 
L 652.392797 128.951976 
L 653.767118 131.19548 
L 655.141439 123.406314 
L 656.51576 131.891555 
L 657.890081 120.819403 
L 659.264402 128.250801 
L 660.638723 130.716974 
L 662.013044 121.935231 
L 663.387365 127.106452 
L 664.761686 121.00653 
L 666.136007 125.249884 
L 667.510328 119.216699 
L 668.884649 130.445744 
L 670.25897 131.593598 
L 671.633291 125.183706 
L 673.007612 129.098131 
L 674.381933 124.276773 
L 675.756254 131.201637 
L 677.130575 132.169034 
L 678.504896 127.323492 
L 679.879217 124.458723 
L 681.253538 131.169605 
L 682.627859 128.648389 
L 684.00218 136.337684 
L 685.376501 123.679841 
L 686.750822 128.793708 
L 688.125143 126.754602 
L 689.499464 124.19004 
L 690.873785 129.849586 
L 692.248106 124.127007 
L 692.248106 124.127007 
" clip-path="url(#pf5df7f2c88)" style="fill: none; stroke: #000000; stroke-width: 1.5; stroke-linecap: square"/>
   </g>
   <g id="patch_8">
    <path d="M 403.640696 200.56 
L 403.640696 35.28 
" style="fill: none; stroke: #000000; stroke-width: 0.8; stroke-linejoin: miter; stroke-linecap: square"/>
   </g>
   <g id="patch_9">
    <path d="M 705.991316 200.56 
L 705.991316 35.28 
" style="fill: none; stroke: #000000; stroke-width: 0.8; stroke-linejoin: miter; stroke-linecap: square"/>
   </g>
   <g id="patch_10">
    <path d="M 403.640696 200.56 
L 705.991316 200.56 
" style="fill: none; stroke: #000000; stroke-width: 0.8; stroke-linejoin: miter; stroke-linecap: square"/>
   </g>
   <g id="patch_11">
    <path d="M 403.640696 35.28 
L 705.991316 35.28 
" style="fill: none; stroke: #000000; stroke-width: 0.8; stroke-linejoin: miter; stroke-linecap: square"/>
   </g>
  </g>
  <g id="text_32">
   <!-- Regularized binary logistic regression. n=300. m=1000. =10 -->
   <g transform="translate(169.915691 16.318125) scale(0.12 -0.12)">
    <defs>
     <path id="DejaVuSans-52" d="M 2841 2188 
Q 3044 2119 3236 1894 
Q 3428 1669 3622 1275 
L 4263 0 
L 3584 0 
L 2988 1197 
Q 2756 1666 2539 1819 
Q 2322 1972 1947 1972 
L 1259 1972 
L 1259 0 
L 628 0 
L 628 4666 
L 2053 4666 
Q 2853 4666 3247 4331 
Q 3641 3997 3641 3322 
Q 3641 2881 3436 2590 
Q 3231 2300 2841 2188 
z
M 1259 4147 
L 1259 2491 
L 2053 2491 
Q 2509 2491 2742 2702 
Q 2975 2913 2975 3322 
Q 2975 3731 2742 3939 
Q 2509 4147 2053 4147 
L 1259 4147 
z
" transform="scale(0.015625)"/>
     <path id="DejaVuSans-67" d="M 2906 1791 
Q 2906 2416 2648 2759 
Q 2391 3103 1925 3103 
Q 1463 3103 1205 2759 
Q 947 2416 947 1791 
Q 947 1169 1205 825 
Q 1463 481 1925 481 
Q 2391 481 2648 825 
Q 2906 1169 2906 1791 
z
M 3481 434 
Q 3481 -459 3084 -895 
Q 2688 -1331 1869 -1331 
Q 1566 -1331 1297 -1286 
Q 1028 -1241 775 -1147 
L 775 -588 
Q 1028 -725 1275 -790 
Q 1522 -856 1778 -856 
Q 2344 -856 2625 -561 
Q 2906 -266 2906 331 
L 2906 616 
Q 2728 306 2450 153 
Q 2172 0 1784 0 
Q 1141 0 747 490 
Q 353 981 353 1791 
Q 353 2603 747 3093 
Q 1141 3584 1784 3584 
Q 2172 3584 2450 3431 
Q 2728 3278 2906 2969 
L 2906 3500 
L 3481 3500 
L 3481 434 
z
" transform="scale(0.015625)"/>
     <path id="DejaVuSans-75" d="M 544 1381 
L 544 3500 
L 1119 3500 
L 1119 1403 
Q 1119 906 1312 657 
Q 1506 409 1894 409 
Q 2359 409 2629 706 
Q 2900 1003 2900 1516 
L 2900 3500 
L 3475 3500 
L 3475 0 
L 2900 0 
L 2900 538 
Q 2691 219 2414 64 
Q 2138 -91 1772 -91 
Q 1169 -91 856 284 
Q 544 659 544 1381 
z
M 1991 3584 
L 1991 3584 
z
" transform="scale(0.015625)"/>
     <path id="DejaVuSans-6c" d="M 603 4863 
L 1178 4863 
L 1178 0 
L 603 0 
L 603 4863 
z
" transform="scale(0.015625)"/>
     <path id="DejaVuSans-7a" d="M 353 3500 
L 3084 3500 
L 3084 2975 
L 922 459 
L 3084 459 
L 3084 0 
L 275 0 
L 275 525 
L 2438 3041 
L 353 3041 
L 353 3500 
z
" transform="scale(0.015625)"/>
     <path id="DejaVuSans-64" d="M 2906 2969 
L 2906 4863 
L 3481 4863 
L 3481 0 
L 2906 0 
L 2906 525 
Q 2725 213 2448 61 
Q 2172 -91 1784 -91 
Q 1150 -91 751 415 
Q 353 922 353 1747 
Q 353 2572 751 3078 
Q 1150 3584 1784 3584 
Q 2172 3584 2448 3432 
Q 2725 3281 2906 2969 
z
M 947 1747 
Q 947 1113 1208 752 
Q 1469 391 1925 391 
Q 2381 391 2643 752 
Q 2906 1113 2906 1747 
Q 2906 2381 2643 2742 
Q 2381 3103 1925 3103 
Q 1469 3103 1208 2742 
Q 947 2381 947 1747 
z
" transform="scale(0.015625)"/>
     <path id="DejaVuSans-20" transform="scale(0.015625)"/>
     <path id="DejaVuSans-62" d="M 3116 1747 
Q 3116 2381 2855 2742 
Q 2594 3103 2138 3103 
Q 1681 3103 1420 2742 
Q 1159 2381 1159 1747 
Q 1159 1113 1420 752 
Q 1681 391 2138 391 
Q 2594 391 2855 752 
Q 3116 1113 3116 1747 
z
M 1159 2969 
Q 1341 3281 1617 3432 
Q 1894 3584 2278 3584 
Q 2916 3584 3314 3078 
Q 3713 2572 3713 1747 
Q 3713 922 3314 415 
Q 2916 -91 2278 -91 
Q 1894 -91 1617 61 
Q 1341 213 1159 525 
L 1159 0 
L 581 0 
L 581 4863 
L 1159 4863 
L 1159 2969 
z
" transform="scale(0.015625)"/>
     <path id="DejaVuSans-79" d="M 2059 -325 
Q 1816 -950 1584 -1140 
Q 1353 -1331 966 -1331 
L 506 -1331 
L 506 -850 
L 844 -850 
Q 1081 -850 1212 -737 
Q 1344 -625 1503 -206 
L 1606 56 
L 191 3500 
L 800 3500 
L 1894 763 
L 2988 3500 
L 3597 3500 
L 2059 -325 
z
" transform="scale(0.015625)"/>
     <path id="DejaVuSans-73" d="M 2834 3397 
L 2834 2853 
Q 2591 2978 2328 3040 
Q 2066 3103 1784 3103 
Q 1356 3103 1142 2972 
Q 928 2841 928 2578 
Q 928 2378 1081 2264 
Q 1234 2150 1697 2047 
L 1894 2003 
Q 2506 1872 2764 1633 
Q 3022 1394 3022 966 
Q 3022 478 2636 193 
Q 2250 -91 1575 -91 
Q 1294 -91 989 -36 
Q 684 19 347 128 
L 347 722 
Q 666 556 975 473 
Q 1284 391 1588 391 
Q 1994 391 2212 530 
Q 2431 669 2431 922 
Q 2431 1156 2273 1281 
Q 2116 1406 1581 1522 
L 1381 1569 
Q 847 1681 609 1914 
Q 372 2147 372 2553 
Q 372 3047 722 3315 
Q 1072 3584 1716 3584 
Q 2034 3584 2315 3537 
Q 2597 3491 2834 3397 
z
" transform="scale(0.015625)"/>
     <path id="DejaVuSans-63" d="M 3122 3366 
L 3122 2828 
Q 2878 2963 2633 3030 
Q 2388 3097 2138 3097 
Q 1578 3097 1268 2742 
Q 959 2388 959 1747 
Q 959 1106 1268 751 
Q 1578 397 2138 397 
Q 2388 397 2633 464 
Q 2878 531 3122 666 
L 3122 134 
Q 2881 22 2623 -34 
Q 2366 -91 2075 -91 
Q 1284 -91 818 406 
Q 353 903 353 1747 
Q 353 2603 823 3093 
Q 1294 3584 2113 3584 
Q 2378 3584 2631 3529 
Q 2884 3475 3122 3366 
z
" transform="scale(0.015625)"/>
     <path id="DejaVuSans-2e" d="M 684 794 
L 1344 794 
L 1344 0 
L 684 0 
L 684 794 
z
" transform="scale(0.015625)"/>
     <path id="DejaVuSans-3d" d="M 678 2906 
L 4684 2906 
L 4684 2381 
L 678 2381 
L 678 2906 
z
M 678 1631 
L 4684 1631 
L 4684 1100 
L 678 1100 
L 678 1631 
z
" transform="scale(0.015625)"/>
     <path id="DejaVuSans-6d" d="M 3328 2828 
Q 3544 3216 3844 3400 
Q 4144 3584 4550 3584 
Q 5097 3584 5394 3201 
Q 5691 2819 5691 2113 
L 5691 0 
L 5113 0 
L 5113 2094 
Q 5113 2597 4934 2840 
Q 4756 3084 4391 3084 
Q 3944 3084 3684 2787 
Q 3425 2491 3425 1978 
L 3425 0 
L 2847 0 
L 2847 2094 
Q 2847 2600 2669 2842 
Q 2491 3084 2119 3084 
Q 1678 3084 1418 2786 
Q 1159 2488 1159 1978 
L 1159 0 
L 581 0 
L 581 3500 
L 1159 3500 
L 1159 2956 
Q 1356 3278 1631 3431 
Q 1906 3584 2284 3584 
Q 2666 3584 2933 3390 
Q 3200 3197 3328 2828 
z
" transform="scale(0.015625)"/>
     <path id="DejaVuSans-3bc" d="M 544 -1331 
L 544 3500 
L 1119 3500 
L 1119 1325 
Q 1119 872 1334 640 
Q 1550 409 1972 409 
Q 2434 409 2667 671 
Q 2900 934 2900 1459 
L 2900 3500 
L 3475 3500 
L 3475 806 
Q 3475 619 3529 530 
Q 3584 441 3700 441 
Q 3728 441 3778 458 
Q 3828 475 3916 513 
L 3916 50 
Q 3788 -22 3673 -56 
Q 3559 -91 3450 -91 
Q 3234 -91 3106 31 
Q 2978 153 2931 403 
Q 2775 156 2548 32 
Q 2322 -91 2016 -91 
Q 1697 -91 1473 31 
Q 1250 153 1119 397 
L 1119 -1331 
L 544 -1331 
z
" transform="scale(0.015625)"/>
    </defs>
    <use xlink:href="#DejaVuSans-52"/>
    <use xlink:href="#DejaVuSans-65" transform="translate(64.982422 0)"/>
    <use xlink:href="#DejaVuSans-67" transform="translate(126.505859 0)"/>
    <use xlink:href="#DejaVuSans-75" transform="translate(189.982422 0)"/>
    <use xlink:href="#DejaVuSans-6c" transform="translate(253.361328 0)"/>
    <use xlink:href="#DejaVuSans-61" transform="translate(281.144531 0)"/>
    <use xlink:href="#DejaVuSans-72" transform="translate(342.423828 0)"/>
    <use xlink:href="#DejaVuSans-69" transform="translate(383.537109 0)"/>
    <use xlink:href="#DejaVuSans-7a" transform="translate(411.320312 0)"/>
    <use xlink:href="#DejaVuSans-65" transform="translate(463.810547 0)"/>
    <use xlink:href="#DejaVuSans-64" transform="translate(525.333984 0)"/>
    <use xlink:href="#DejaVuSans-20" transform="translate(588.810547 0)"/>
    <use xlink:href="#DejaVuSans-62" transform="translate(620.597656 0)"/>
    <use xlink:href="#DejaVuSans-69" transform="translate(684.074219 0)"/>
    <use xlink:href="#DejaVuSans-6e" transform="translate(711.857422 0)"/>
    <use xlink:href="#DejaVuSans-61" transform="translate(775.236328 0)"/>
    <use xlink:href="#DejaVuSans-72" transform="translate(836.515625 0)"/>
    <use xlink:href="#DejaVuSans-79" transform="translate(877.628906 0)"/>
    <use xlink:href="#DejaVuSans-20" transform="translate(936.808594 0)"/>
    <use xlink:href="#DejaVuSans-6c" transform="translate(968.595703 0)"/>
    <use xlink:href="#DejaVuSans-6f" transform="translate(996.378906 0)"/>
    <use xlink:href="#DejaVuSans-67" transform="translate(1057.560547 0)"/>
    <use xlink:href="#DejaVuSans-69" transform="translate(1121.037109 0)"/>
    <use xlink:href="#DejaVuSans-73" transform="translate(1148.820312 0)"/>
    <use xlink:href="#DejaVuSans-74" transform="translate(1200.919922 0)"/>
    <use xlink:href="#DejaVuSans-69" transform="translate(1240.128906 0)"/>
    <use xlink:href="#DejaVuSans-63" transform="translate(1267.912109 0)"/>
    <use xlink:href="#DejaVuSans-20" transform="translate(1322.892578 0)"/>
    <use xlink:href="#DejaVuSans-72" transform="translate(1354.679688 0)"/>
    <use xlink:href="#DejaVuSans-65" transform="translate(1393.542969 0)"/>
    <use xlink:href="#DejaVuSans-67" transform="translate(1455.066406 0)"/>
    <use xlink:href="#DejaVuSans-72" transform="translate(1518.542969 0)"/>
    <use xlink:href="#DejaVuSans-65" transform="translate(1557.40625 0)"/>
    <use xlink:href="#DejaVuSans-73" transform="translate(1618.929688 0)"/>
    <use xlink:href="#DejaVuSans-73" transform="translate(1671.029297 0)"/>
    <use xlink:href="#DejaVuSans-69" transform="translate(1723.128906 0)"/>
    <use xlink:href="#DejaVuSans-6f" transform="translate(1750.912109 0)"/>
    <use xlink:href="#DejaVuSans-6e" transform="translate(1812.09375 0)"/>
    <use xlink:href="#DejaVuSans-2e" transform="translate(1875.472656 0)"/>
    <use xlink:href="#DejaVuSans-20" transform="translate(1907.259766 0)"/>
    <use xlink:href="#DejaVuSans-6e" transform="translate(1939.046875 0)"/>
    <use xlink:href="#DejaVuSans-3d" transform="translate(2002.425781 0)"/>
    <use xlink:href="#DejaVuSans-33" transform="translate(2086.214844 0)"/>
    <use xlink:href="#DejaVuSans-30" transform="translate(2149.837891 0)"/>
    <use xlink:href="#DejaVuSans-30" transform="translate(2213.460938 0)"/>
    <use xlink:href="#DejaVuSans-2e" transform="translate(2277.083984 0)"/>
    <use xlink:href="#DejaVuSans-20" transform="translate(2308.871094 0)"/>
    <use xlink:href="#DejaVuSans-6d" transform="translate(2340.658203 0)"/>
    <use xlink:href="#DejaVuSans-3d" transform="translate(2438.070312 0)"/>
    <use xlink:href="#DejaVuSans-31" transform="translate(2521.859375 0)"/>
    <use xlink:href="#DejaVuSans-30" transform="translate(2585.482422 0)"/>
    <use xlink:href="#DejaVuSans-30" transform="translate(2649.105469 0)"/>
    <use xlink:href="#DejaVuSans-30" transform="translate(2712.728516 0)"/>
    <use xlink:href="#DejaVuSans-2e" transform="translate(2776.351562 0)"/>
    <use xlink:href="#DejaVuSans-20" transform="translate(2808.138672 0)"/>
    <use xlink:href="#DejaVuSans-3bc" transform="translate(2839.925781 0)"/>
    <use xlink:href="#DejaVuSans-3d" transform="translate(2903.548828 0)"/>
    <use xlink:href="#DejaVuSans-31" transform="translate(2987.337891 0)"/>
    <use xlink:href="#DejaVuSans-30" transform="translate(3050.960938 0)"/>
   </g>
  </g>
  <g id="legend_1">
   <g id="patch_12">
    <path d="M 141.842097 249.16 
L 571.740535 249.16 
Q 573.740535 249.16 573.740535 247.16 
L 573.740535 218.80375 
Q 573.740535 216.80375 571.740535 216.80375 
L 141.842097 216.80375 
Q 139.842097 216.80375 139.842097 218.80375 
L 139.842097 247.16 
Q 139.842097 249.16 141.842097 249.16 
z
" style="fill: #ffffff; opacity: 0.8; stroke: #cccccc; stroke-linejoin: miter"/>
   </g>
   <g id="line2d_97">
    <path d="M 143.842097 224.902187 
L 153.842097 224.902187 
L 163.842097 224.902187 
" style="fill: none; stroke: #ff0000; stroke-width: 1.5; stroke-linecap: square"/>
   </g>
   <g id="text_33">
    <!-- Gradient Descent -->
    <g transform="translate(171.842097 228.402187) scale(0.1 -0.1)">
     <defs>
      <path id="DejaVuSans-47" d="M 3809 666 
L 3809 1919 
L 2778 1919 
L 2778 2438 
L 4434 2438 
L 4434 434 
Q 4069 175 3628 42 
Q 3188 -91 2688 -91 
Q 1594 -91 976 548 
Q 359 1188 359 2328 
Q 359 3472 976 4111 
Q 1594 4750 2688 4750 
Q 3144 4750 3555 4637 
Q 3966 4525 4313 4306 
L 4313 3634 
Q 3963 3931 3569 4081 
Q 3175 4231 2741 4231 
Q 1884 4231 1454 3753 
Q 1025 3275 1025 2328 
Q 1025 1384 1454 906 
Q 1884 428 2741 428 
Q 3075 428 3337 486 
Q 3600 544 3809 666 
z
" transform="scale(0.015625)"/>
      <path id="DejaVuSans-44" d="M 1259 4147 
L 1259 519 
L 2022 519 
Q 2988 519 3436 956 
Q 3884 1394 3884 2338 
Q 3884 3275 3436 3711 
Q 2988 4147 2022 4147 
L 1259 4147 
z
M 628 4666 
L 1925 4666 
Q 3281 4666 3915 4102 
Q 4550 3538 4550 2338 
Q 4550 1131 3912 565 
Q 3275 0 1925 0 
L 628 0 
L 628 4666 
z
" transform="scale(0.015625)"/>
     </defs>
     <use xlink:href="#DejaVuSans-47"/>
     <use xlink:href="#DejaVuSans-72" transform="translate(77.490234 0)"/>
     <use xlink:href="#DejaVuSans-61" transform="translate(118.603516 0)"/>
     <use xlink:href="#DejaVuSans-64" transform="translate(179.882812 0)"/>
     <use xlink:href="#DejaVuSans-69" transform="translate(243.359375 0)"/>
     <use xlink:href="#DejaVuSans-65" transform="translate(271.142578 0)"/>
     <use xlink:href="#DejaVuSans-6e" transform="translate(332.666016 0)"/>
     <use xlink:href="#DejaVuSans-74" transform="translate(396.044922 0)"/>
     <use xlink:href="#DejaVuSans-20" transform="translate(435.253906 0)"/>
     <use xlink:href="#DejaVuSans-44" transform="translate(467.041016 0)"/>
     <use xlink:href="#DejaVuSans-65" transform="translate(544.042969 0)"/>
     <use xlink:href="#DejaVuSans-73" transform="translate(605.566406 0)"/>
     <use xlink:href="#DejaVuSans-63" transform="translate(657.666016 0)"/>
     <use xlink:href="#DejaVuSans-65" transform="translate(712.646484 0)"/>
     <use xlink:href="#DejaVuSans-6e" transform="translate(774.169922 0)"/>
     <use xlink:href="#DejaVuSans-74" transform="translate(837.548828 0)"/>
    </g>
   </g>
   <g id="line2d_98">
    <path d="M 143.842097 239.580312 
L 153.842097 239.580312 
L 163.842097 239.580312 
" style="fill: none; stroke-dasharray: 9.6,2.4,1.5,2.4; stroke-dashoffset: 0; stroke: #0000ff; stroke-width: 1.5"/>
   </g>
   <g id="text_34">
    <!-- Steepest Descent -->
    <g transform="translate(171.842097 243.080312) scale(0.1 -0.1)">
     <defs>
      <path id="DejaVuSans-53" d="M 3425 4513 
L 3425 3897 
Q 3066 4069 2747 4153 
Q 2428 4238 2131 4238 
Q 1616 4238 1336 4038 
Q 1056 3838 1056 3469 
Q 1056 3159 1242 3001 
Q 1428 2844 1947 2747 
L 2328 2669 
Q 3034 2534 3370 2195 
Q 3706 1856 3706 1288 
Q 3706 609 3251 259 
Q 2797 -91 1919 -91 
Q 1588 -91 1214 -16 
Q 841 59 441 206 
L 441 856 
Q 825 641 1194 531 
Q 1563 422 1919 422 
Q 2459 422 2753 634 
Q 3047 847 3047 1241 
Q 3047 1584 2836 1778 
Q 2625 1972 2144 2069 
L 1759 2144 
Q 1053 2284 737 2584 
Q 422 2884 422 3419 
Q 422 4038 858 4394 
Q 1294 4750 2059 4750 
Q 2388 4750 2728 4690 
Q 3069 4631 3425 4513 
z
" transform="scale(0.015625)"/>
      <path id="DejaVuSans-70" d="M 1159 525 
L 1159 -1331 
L 581 -1331 
L 581 3500 
L 1159 3500 
L 1159 2969 
Q 1341 3281 1617 3432 
Q 1894 3584 2278 3584 
Q 2916 3584 3314 3078 
Q 3713 2572 3713 1747 
Q 3713 922 3314 415 
Q 2916 -91 2278 -91 
Q 1894 -91 1617 61 
Q 1341 213 1159 525 
z
M 3116 1747 
Q 3116 2381 2855 2742 
Q 2594 3103 2138 3103 
Q 1681 3103 1420 2742 
Q 1159 2381 1159 1747 
Q 1159 1113 1420 752 
Q 1681 391 2138 391 
Q 2594 391 2855 752 
Q 3116 1113 3116 1747 
z
" transform="scale(0.015625)"/>
     </defs>
     <use xlink:href="#DejaVuSans-53"/>
     <use xlink:href="#DejaVuSans-74" transform="translate(63.476562 0)"/>
     <use xlink:href="#DejaVuSans-65" transform="translate(102.685547 0)"/>
     <use xlink:href="#DejaVuSans-65" transform="translate(164.208984 0)"/>
     <use xlink:href="#DejaVuSans-70" transform="translate(225.732422 0)"/>
     <use xlink:href="#DejaVuSans-65" transform="translate(289.208984 0)"/>
     <use xlink:href="#DejaVuSans-73" transform="translate(350.732422 0)"/>
     <use xlink:href="#DejaVuSans-74" transform="translate(402.832031 0)"/>
     <use xlink:href="#DejaVuSans-20" transform="translate(442.041016 0)"/>
     <use xlink:href="#DejaVuSans-44" transform="translate(473.828125 0)"/>
     <use xlink:href="#DejaVuSans-65" transform="translate(550.830078 0)"/>
     <use xlink:href="#DejaVuSans-73" transform="translate(612.353516 0)"/>
     <use xlink:href="#DejaVuSans-63" transform="translate(664.453125 0)"/>
     <use xlink:href="#DejaVuSans-65" transform="translate(719.433594 0)"/>
     <use xlink:href="#DejaVuSans-6e" transform="translate(780.957031 0)"/>
     <use xlink:href="#DejaVuSans-74" transform="translate(844.335938 0)"/>
    </g>
   </g>
   <g id="line2d_99">
    <path d="M 280.198347 224.902187 
L 290.198347 224.902187 
L 300.198347 224.902187 
" style="fill: none; stroke-dasharray: 5.55,2.4; stroke-dashoffset: 0; stroke: #00bfbf; stroke-width: 1.5"/>
   </g>
   <g id="text_35">
    <!-- Conjugate Gradients PR -->
    <g transform="translate(308.198347 228.402187) scale(0.1 -0.1)">
     <defs>
      <path id="DejaVuSans-43" d="M 4122 4306 
L 4122 3641 
Q 3803 3938 3442 4084 
Q 3081 4231 2675 4231 
Q 1875 4231 1450 3742 
Q 1025 3253 1025 2328 
Q 1025 1406 1450 917 
Q 1875 428 2675 428 
Q 3081 428 3442 575 
Q 3803 722 4122 1019 
L 4122 359 
Q 3791 134 3420 21 
Q 3050 -91 2638 -91 
Q 1578 -91 968 557 
Q 359 1206 359 2328 
Q 359 3453 968 4101 
Q 1578 4750 2638 4750 
Q 3056 4750 3426 4639 
Q 3797 4528 4122 4306 
z
" transform="scale(0.015625)"/>
      <path id="DejaVuSans-6a" d="M 603 3500 
L 1178 3500 
L 1178 -63 
Q 1178 -731 923 -1031 
Q 669 -1331 103 -1331 
L -116 -1331 
L -116 -844 
L 38 -844 
Q 366 -844 484 -692 
Q 603 -541 603 -63 
L 603 3500 
z
M 603 4863 
L 1178 4863 
L 1178 4134 
L 603 4134 
L 603 4863 
z
" transform="scale(0.015625)"/>
      <path id="DejaVuSans-50" d="M 1259 4147 
L 1259 2394 
L 2053 2394 
Q 2494 2394 2734 2622 
Q 2975 2850 2975 3272 
Q 2975 3691 2734 3919 
Q 2494 4147 2053 4147 
L 1259 4147 
z
M 628 4666 
L 2053 4666 
Q 2838 4666 3239 4311 
Q 3641 3956 3641 3272 
Q 3641 2581 3239 2228 
Q 2838 1875 2053 1875 
L 1259 1875 
L 1259 0 
L 628 0 
L 628 4666 
z
" transform="scale(0.015625)"/>
     </defs>
     <use xlink:href="#DejaVuSans-43"/>
     <use xlink:href="#DejaVuSans-6f" transform="translate(69.824219 0)"/>
     <use xlink:href="#DejaVuSans-6e" transform="translate(131.005859 0)"/>
     <use xlink:href="#DejaVuSans-6a" transform="translate(194.384766 0)"/>
     <use xlink:href="#DejaVuSans-75" transform="translate(222.167969 0)"/>
     <use xlink:href="#DejaVuSans-67" transform="translate(285.546875 0)"/>
     <use xlink:href="#DejaVuSans-61" transform="translate(349.023438 0)"/>
     <use xlink:href="#DejaVuSans-74" transform="translate(410.302734 0)"/>
     <use xlink:href="#DejaVuSans-65" transform="translate(449.511719 0)"/>
     <use xlink:href="#DejaVuSans-20" transform="translate(511.035156 0)"/>
     <use xlink:href="#DejaVuSans-47" transform="translate(542.822266 0)"/>
     <use xlink:href="#DejaVuSans-72" transform="translate(620.3125 0)"/>
     <use xlink:href="#DejaVuSans-61" transform="translate(661.425781 0)"/>
     <use xlink:href="#DejaVuSans-64" transform="translate(722.705078 0)"/>
     <use xlink:href="#DejaVuSans-69" transform="translate(786.181641 0)"/>
     <use xlink:href="#DejaVuSans-65" transform="translate(813.964844 0)"/>
     <use xlink:href="#DejaVuSans-6e" transform="translate(875.488281 0)"/>
     <use xlink:href="#DejaVuSans-74" transform="translate(938.867188 0)"/>
     <use xlink:href="#DejaVuSans-73" transform="translate(978.076172 0)"/>
     <use xlink:href="#DejaVuSans-20" transform="translate(1030.175781 0)"/>
     <use xlink:href="#DejaVuSans-50" transform="translate(1061.962891 0)"/>
     <use xlink:href="#DejaVuSans-52" transform="translate(1122.265625 0)"/>
    </g>
   </g>
   <g id="line2d_100">
    <path d="M 280.198347 239.580312 
L 290.198347 239.580312 
L 300.198347 239.580312 
" style="fill: none; stroke-dasharray: 5.55,2.4; stroke-dashoffset: 0; stroke: #008000; stroke-width: 1.5"/>
   </g>
   <g id="text_36">
    <!-- Conjugate Gradients FR -->
    <g transform="translate(308.198347 243.080312) scale(0.1 -0.1)">
     <defs>
      <path id="DejaVuSans-46" d="M 628 4666 
L 3309 4666 
L 3309 4134 
L 1259 4134 
L 1259 2759 
L 3109 2759 
L 3109 2228 
L 1259 2228 
L 1259 0 
L 628 0 
L 628 4666 
z
" transform="scale(0.015625)"/>
     </defs>
     <use xlink:href="#DejaVuSans-43"/>
     <use xlink:href="#DejaVuSans-6f" transform="translate(69.824219 0)"/>
     <use xlink:href="#DejaVuSans-6e" transform="translate(131.005859 0)"/>
     <use xlink:href="#DejaVuSans-6a" transform="translate(194.384766 0)"/>
     <use xlink:href="#DejaVuSans-75" transform="translate(222.167969 0)"/>
     <use xlink:href="#DejaVuSans-67" transform="translate(285.546875 0)"/>
     <use xlink:href="#DejaVuSans-61" transform="translate(349.023438 0)"/>
     <use xlink:href="#DejaVuSans-74" transform="translate(410.302734 0)"/>
     <use xlink:href="#DejaVuSans-65" transform="translate(449.511719 0)"/>
     <use xlink:href="#DejaVuSans-20" transform="translate(511.035156 0)"/>
     <use xlink:href="#DejaVuSans-47" transform="translate(542.822266 0)"/>
     <use xlink:href="#DejaVuSans-72" transform="translate(620.3125 0)"/>
     <use xlink:href="#DejaVuSans-61" transform="translate(661.425781 0)"/>
     <use xlink:href="#DejaVuSans-64" transform="translate(722.705078 0)"/>
     <use xlink:href="#DejaVuSans-69" transform="translate(786.181641 0)"/>
     <use xlink:href="#DejaVuSans-65" transform="translate(813.964844 0)"/>
     <use xlink:href="#DejaVuSans-6e" transform="translate(875.488281 0)"/>
     <use xlink:href="#DejaVuSans-74" transform="translate(938.867188 0)"/>
     <use xlink:href="#DejaVuSans-73" transform="translate(978.076172 0)"/>
     <use xlink:href="#DejaVuSans-20" transform="translate(1030.175781 0)"/>
     <use xlink:href="#DejaVuSans-46" transform="translate(1061.962891 0)"/>
     <use xlink:href="#DejaVuSans-52" transform="translate(1119.482422 0)"/>
    </g>
   </g>
   <g id="line2d_101">
    <path d="M 447.371785 224.902187 
L 457.371785 224.902187 
L 467.371785 224.902187 
" style="fill: none; stroke-dasharray: 5.55,2.4; stroke-dashoffset: 0; stroke: #bf00bf; stroke-width: 1.5"/>
   </g>
   <g id="text_37">
    <!-- SR1 -->
    <g transform="translate(475.371785 228.402187) scale(0.1 -0.1)">
     <use xlink:href="#DejaVuSans-53"/>
     <use xlink:href="#DejaVuSans-52" transform="translate(63.476562 0)"/>
     <use xlink:href="#DejaVuSans-31" transform="translate(132.958984 0)"/>
    </g>
   </g>
   <g id="line2d_102">
    <path d="M 515.03116 224.902187 
L 525.03116 224.902187 
L 535.03116 224.902187 
" style="fill: none; stroke: #000000; stroke-width: 1.5; stroke-linecap: square"/>
   </g>
   <g id="text_38">
    <!-- BFGS -->
    <g transform="translate(543.03116 228.402187) scale(0.1 -0.1)">
     <defs>
      <path id="DejaVuSans-42" d="M 1259 2228 
L 1259 519 
L 2272 519 
Q 2781 519 3026 730 
Q 3272 941 3272 1375 
Q 3272 1813 3026 2020 
Q 2781 2228 2272 2228 
L 1259 2228 
z
M 1259 4147 
L 1259 2741 
L 2194 2741 
Q 2656 2741 2882 2914 
Q 3109 3088 3109 3444 
Q 3109 3797 2882 3972 
Q 2656 4147 2194 4147 
L 1259 4147 
z
M 628 4666 
L 2241 4666 
Q 2963 4666 3353 4366 
Q 3744 4066 3744 3513 
Q 3744 3084 3544 2831 
Q 3344 2578 2956 2516 
Q 3422 2416 3680 2098 
Q 3938 1781 3938 1306 
Q 3938 681 3513 340 
Q 3088 0 2303 0 
L 628 0 
L 628 4666 
z
" transform="scale(0.015625)"/>
     </defs>
     <use xlink:href="#DejaVuSans-42"/>
     <use xlink:href="#DejaVuSans-46" transform="translate(68.603516 0)"/>
     <use xlink:href="#DejaVuSans-47" transform="translate(126.123047 0)"/>
     <use xlink:href="#DejaVuSans-53" transform="translate(203.613281 0)"/>
    </g>
   </g>
  </g>
 </g>
 <defs>
  <clipPath id="p0a09223c42">
   <rect x="45.478125" y="35.28" width="302.35062" height="165.28"/>
  </clipPath>
  <clipPath id="pf5df7f2c88">
   <rect x="403.640696" y="35.28" width="302.35062" height="165.28"/>
  </clipPath>
 </defs>
</svg>
